<?xml version="1.0" encoding="UTF-8" standalone="no"?>
<svg
   width="23mm"
   height="63mm"
   viewBox="0 -63 23 63"
   version="1.1"
   id="svg1"
   sodipodi:docname="kerf_bend_s3_k2_dy1.2.svg"
   inkscape:version="1.4 (e7c3feb1, 2024-10-09)"
   xmlns:inkscape="http://www.inkscape.org/namespaces/inkscape"
   xmlns:sodipodi="http://sodipodi.sourceforge.net/DTD/sodipodi-0.dtd"
   xmlns="http://www.w3.org/2000/svg"
   xmlns:svg="http://www.w3.org/2000/svg">
  <defs
     id="defs1" />
  <sodipodi:namedview
     id="namedview1"
     pagecolor="#505050"
     bordercolor="#eeeeee"
     borderopacity="1"
     inkscape:showpageshadow="0"
     inkscape:pageopacity="0"
     inkscape:pagecheckerboard="0"
     inkscape:deskcolor="#505050"
     inkscape:document-units="mm"
     inkscape:zoom="1.9827093"
     inkscape:cx="-47.662056"
     inkscape:cy="153.32556"
     inkscape:window-width="1104"
     inkscape:window-height="605"
     inkscape:window-x="0"
     inkscape:window-y="39"
     inkscape:window-maximized="0"
     inkscape:current-layer="svg1" />
  <title
     id="title1">OpenSCAD Model</title>
  <path
     d=" M 23,-3.65421 L 22.7059,-3.65903 L 22.4147,-3.67343 L 22.1291,-3.69727 L 21.8519,-3.73033 L 21.5858,-3.77229  L 21.3333,-3.82274 L 21.0968,-3.8812 L 20.8787,-3.9471 L 20.681,-4.01982 L 20.5056,-4.09864 L 20.3542,-4.18281  L 20.2284,-4.27153 L 20.1292,-4.36393 L 20.0576,-4.45912 L 20.0144,-4.55619 L 20,-4.65421 L 20.0144,-4.75223  L 20.0576,-4.8493 L 20.1292,-4.9445 L 20.2284,-5.03689 L 20.3542,-5.12561 L 20.5056,-5.20978 L 20.681,-5.2886  L 20.8787,-5.36132 L 21.0968,-5.42722 L 21.3333,-5.48568 L 21.5858,-5.53613 L 21.8519,-5.57809 L 22.1291,-5.61115  L 22.4147,-5.635 L 22.7059,-5.6494 L 23,-5.65421 L 23,-8.30842 L 22.7059,-8.31324 L 22.4147,-8.32764  L 22.1291,-8.35148 L 21.8519,-8.38454 L 21.5858,-8.4265 L 21.3333,-8.47695 L 21.0968,-8.53541 L 20.8787,-8.60132  L 20.681,-8.67403 L 20.5056,-8.75285 L 20.3542,-8.83703 L 20.2284,-8.92574 L 20.1292,-9.01814 L 20.0576,-9.11333  L 20.0144,-9.21041 L 20,-9.30842 L 20.0144,-9.40644 L 20.0576,-9.50351 L 20.1292,-9.59871 L 20.2284,-9.69111  L 20.3542,-9.77982 L 20.5056,-9.86399 L 20.681,-9.94282 L 20.8787,-10.0155 L 21.0968,-10.0814 L 21.3333,-10.1399  L 21.5858,-10.1903 L 21.8519,-10.2323 L 22.1291,-10.2654 L 22.4147,-10.2892 L 22.7059,-10.3036 L 23,-10.3084  L 23,-12.9626 L 22.7059,-12.9674 L 22.4147,-12.9818 L 22.1291,-13.0057 L 21.8519,-13.0388 L 21.5858,-13.0807  L 21.3333,-13.1312 L 21.0968,-13.1896 L 20.8787,-13.2555 L 20.681,-13.3282 L 20.5056,-13.4071 L 20.3542,-13.4912  L 20.2284,-13.58 L 20.1292,-13.6723 L 20.0576,-13.7675 L 20.0144,-13.8646 L 20,-13.9626 L 20.0144,-14.0607  L 20.0576,-14.1577 L 20.1292,-14.2529 L 20.2284,-14.3453 L 20.3542,-14.434 L 20.5056,-14.5182 L 20.681,-14.597  L 20.8787,-14.6697 L 21.0968,-14.7356 L 21.3333,-14.7941 L 21.5858,-14.8446 L 21.8519,-14.8865 L 22.1291,-14.9196  L 22.4147,-14.9434 L 22.7059,-14.9578 L 23,-14.9626 L 23,-17.6168 L 22.7059,-17.6217 L 22.4147,-17.6361  L 22.1291,-17.6599 L 21.8519,-17.693 L 21.5858,-17.7349 L 21.3333,-17.7854 L 21.0968,-17.8438 L 20.8787,-17.9097  L 20.681,-17.9825 L 20.5056,-18.0613 L 20.3542,-18.1454 L 20.2284,-18.2342 L 20.1292,-18.3266 L 20.0576,-18.4218  L 20.0144,-18.5188 L 20,-18.6168 L 20.0144,-18.7149 L 20.0576,-18.8119 L 20.1292,-18.9071 L 20.2284,-18.9995  L 20.3542,-19.0882 L 20.5056,-19.1724 L 20.681,-19.2512 L 20.8787,-19.324 L 21.0968,-19.3899 L 21.3333,-19.4483  L 21.5858,-19.4988 L 21.8519,-19.5407 L 22.1291,-19.5738 L 22.4147,-19.5976 L 22.7059,-19.612 L 23,-19.6168  L 23,-22.2711 L 22.7059,-22.2759 L 22.4147,-22.2903 L 22.1291,-22.3141 L 21.8519,-22.3472 L 21.5858,-22.3891  L 21.3333,-22.4396 L 21.0968,-22.498 L 20.8787,-22.5639 L 20.681,-22.6367 L 20.5056,-22.7155 L 20.3542,-22.7997  L 20.2284,-22.8884 L 20.1292,-22.9808 L 20.0576,-23.076 L 20.0144,-23.173 L 20,-23.2711 L 20.0144,-23.3691  L 20.0576,-23.4661 L 20.1292,-23.5613 L 20.2284,-23.6537 L 20.3542,-23.7425 L 20.5056,-23.8266 L 20.681,-23.9054  L 20.8787,-23.9782 L 21.0968,-24.0441 L 21.3333,-24.1025 L 21.5858,-24.153 L 21.8519,-24.1949 L 22.1291,-24.228  L 22.4147,-24.2518 L 22.7059,-24.2662 L 23,-24.2711 L 23,-26.9253 L 22.7059,-26.9301 L 22.4147,-26.9445  L 22.1291,-26.9683 L 21.8519,-27.0014 L 21.5858,-27.0433 L 21.3333,-27.0938 L 21.0968,-27.1523 L 20.8787,-27.2182  L 20.681,-27.2909 L 20.5056,-27.3697 L 20.3542,-27.4539 L 20.2284,-27.5426 L 20.1292,-27.635 L 20.0576,-27.7302  L 20.0144,-27.8273 L 20,-27.9253 L 20.0144,-28.0233 L 20.0576,-28.1204 L 20.1292,-28.2156 L 20.2284,-28.308  L 20.3542,-28.3967 L 20.5056,-28.4808 L 20.681,-28.5597 L 20.8787,-28.6324 L 21.0968,-28.6983 L 21.3333,-28.7567  L 21.5858,-28.8072 L 21.8519,-28.8491 L 22.1291,-28.8822 L 22.4147,-28.9061 L 22.7059,-28.9205 L 23,-28.9253  L 23,-31.5795 L 22.7059,-31.5843 L 22.4147,-31.5987 L 22.1291,-31.6225 L 21.8519,-31.6556 L 21.5858,-31.6976  L 21.3333,-31.748 L 21.0968,-31.8065 L 20.8787,-31.8724 L 20.681,-31.9451 L 20.5056,-32.0239 L 20.3542,-32.1081  L 20.2284,-32.1968 L 20.1292,-32.2892 L 20.0576,-32.3844 L 20.0144,-32.4815 L 20,-32.5795 L 20.0144,-32.6775  L 20.0576,-32.7746 L 20.1292,-32.8698 L 20.2284,-32.9622 L 20.3542,-33.0509 L 20.5056,-33.135 L 20.681,-33.2139  L 20.8787,-33.2866 L 21.0968,-33.3525 L 21.3333,-33.4109 L 21.5858,-33.4614 L 21.8519,-33.5034 L 22.1291,-33.5364  L 22.4147,-33.5603 L 22.7059,-33.5747 L 23,-33.5795 L 23,-36.2337 L 22.7059,-36.2385 L 22.4147,-36.2529  L 22.1291,-36.2768 L 21.8519,-36.3098 L 21.5858,-36.3518 L 21.3333,-36.4022 L 21.0968,-36.4607 L 20.8787,-36.5266  L 20.681,-36.5993 L 20.5056,-36.6781 L 20.3542,-36.7623 L 20.2284,-36.851 L 20.1292,-36.9434 L 20.0576,-37.0386  L 20.0144,-37.1357 L 20,-37.2337 L 20.0144,-37.3317 L 20.0576,-37.4288 L 20.1292,-37.524 L 20.2284,-37.6164  L 20.3542,-37.7051 L 20.5056,-37.7893 L 20.681,-37.8681 L 20.8787,-37.9408 L 21.0968,-38.0067 L 21.3333,-38.0652  L 21.5858,-38.1156 L 21.8519,-38.1576 L 22.1291,-38.1906 L 22.4147,-38.2145 L 22.7059,-38.2289 L 23,-38.2337  L 23,-40.8879 L 22.7059,-40.8927 L 22.4147,-40.9071 L 22.1291,-40.931 L 21.8519,-40.964 L 21.5858,-41.006  L 21.3333,-41.0564 L 21.0968,-41.1149 L 20.8787,-41.1808 L 20.681,-41.2535 L 20.5056,-41.3323 L 20.3542,-41.4165  L 20.2284,-41.5052 L 20.1292,-41.5976 L 20.0576,-41.6928 L 20.0144,-41.7899 L 20,-41.8879 L 20.0144,-41.9859  L 20.0576,-42.083 L 20.1292,-42.1782 L 20.2284,-42.2706 L 20.3542,-42.3593 L 20.5056,-42.4435 L 20.681,-42.5223  L 20.8787,-42.595 L 21.0968,-42.6609 L 21.3333,-42.7194 L 21.5858,-42.7698 L 21.8519,-42.8118 L 22.1291,-42.8448  L 22.4147,-42.8687 L 22.7059,-42.8831 L 23,-42.8879 L 23,-45.5421 L 22.7059,-45.5469 L 22.4147,-45.5613  L 22.1291,-45.5852 L 21.8519,-45.6182 L 21.5858,-45.6602 L 21.3333,-45.7106 L 21.0968,-45.7691 L 20.8787,-45.835  L 20.681,-45.9077 L 20.5056,-45.9865 L 20.3542,-46.0707 L 20.2284,-46.1594 L 20.1292,-46.2518 L 20.0576,-46.347  L 20.0144,-46.4441 L 20,-46.5421 L 20.0144,-46.6401 L 20.0576,-46.7372 L 20.1292,-46.8324 L 20.2284,-46.9248  L 20.3542,-47.0135 L 20.5056,-47.0977 L 20.681,-47.1765 L 20.8787,-47.2492 L 21.0968,-47.3151 L 21.3333,-47.3736  L 21.5858,-47.424 L 21.8519,-47.466 L 22.1291,-47.4991 L 22.4147,-47.5229 L 22.7059,-47.5373 L 23,-47.5421  L 23,-50.1963 L 22.7059,-50.2011 L 22.4147,-50.2155 L 22.1291,-50.2394 L 21.8519,-50.2724 L 21.5858,-50.3144  L 21.3333,-50.3649 L 21.0968,-50.4233 L 20.8787,-50.4892 L 20.681,-50.5619 L 20.5056,-50.6408 L 20.3542,-50.7249  L 20.2284,-50.8136 L 20.1292,-50.906 L 20.0576,-51.0012 L 20.0144,-51.0983 L 20,-51.1963 L 20.0144,-51.2943  L 20.0576,-51.3914 L 20.1292,-51.4866 L 20.2284,-51.579 L 20.3542,-51.6677 L 20.5056,-51.7519 L 20.681,-51.8307  L 20.8787,-51.9034 L 21.0968,-51.9693 L 21.3333,-52.0278 L 21.5858,-52.0782 L 21.8519,-52.1202 L 22.1291,-52.1533  L 22.4147,-52.1771 L 22.7059,-52.1915 L 23,-52.1963 L 23,-54.8505 L 22.7059,-54.8554 L 22.4147,-54.8698  L 22.1291,-54.8936 L 21.8519,-54.9267 L 21.5858,-54.9686 L 21.3333,-55.0191 L 21.0968,-55.0775 L 20.8787,-55.1434  L 20.681,-55.2161 L 20.5056,-55.295 L 20.3542,-55.3791 L 20.2284,-55.4679 L 20.1292,-55.5603 L 20.0576,-55.6554  L 20.0144,-55.7525 L 20,-55.8505 L 20.0144,-55.9486 L 20.0576,-56.0456 L 20.1292,-56.1408 L 20.2284,-56.2332  L 20.3542,-56.3219 L 20.5056,-56.4061 L 20.681,-56.4849 L 20.8787,-56.5576 L 21.0968,-56.6235 L 21.3333,-56.682  L 21.5858,-56.7325 L 21.8519,-56.7744 L 22.1291,-56.8075 L 22.4147,-56.8313 L 22.7059,-56.8457 L 23,-56.8505  L 23,-59.5047 L 22.7059,-59.5096 L 22.4147,-59.524 L 22.1291,-59.5478 L 21.8519,-59.5809 L 21.5858,-59.6228  L 21.3333,-59.6733 L 21.0968,-59.7317 L 20.8787,-59.7976 L 20.681,-59.8704 L 20.5056,-59.9492 L 20.3542,-60.0334  L 20.2284,-60.1221 L 20.1292,-60.2145 L 20.0576,-60.3097 L 20.0144,-60.4067 L 20,-60.5047 L 20.0144,-60.6028  L 20.0576,-60.6998 L 20.1292,-60.795 L 20.2284,-60.8874 L 20.3542,-60.9761 L 20.5056,-61.0603 L 20.681,-61.1391  L 20.8787,-61.2119 L 21.0968,-61.2778 L 21.3333,-61.3362 L 21.5858,-61.3867 L 21.8519,-61.4286 L 22.1291,-61.4617  L 22.4147,-61.4855 L 22.7059,-61.4999 L 23,-61.5047 L 23,-62.8319 L 0,-62.8319 L 0,-61.5047  L 0.294051,-61.4999 L 0.585271,-61.4855 L 0.870854,-61.4617 L 1.14805,-61.4286 L 1.41419,-61.3867 L 1.66671,-61.3362  L 1.90318,-61.2778 L 2.12132,-61.2119 L 2.31903,-61.1391 L 2.49441,-61.0603 L 2.64576,-60.9761 L 2.77164,-60.8874  L 2.87082,-60.795 L 2.94236,-60.6998 L 2.98555,-60.6028 L 3,-60.5047 L 2.98555,-60.4067 L 2.94236,-60.3097  L 2.87082,-60.2145 L 2.77164,-60.1221 L 2.64576,-60.0334 L 2.49441,-59.9492 L 2.31903,-59.8704 L 2.12132,-59.7976  L 1.90318,-59.7317 L 1.66671,-59.6733 L 1.41419,-59.6228 L 1.14805,-59.5809 L 0.870854,-59.5478 L 0.585271,-59.524  L 0.294051,-59.5096 L 0,-59.5047 L 0,-56.8505 L 0.294051,-56.8457 L 0.585271,-56.8313 L 0.870854,-56.8075  L 1.14805,-56.7744 L 1.41419,-56.7325 L 1.66671,-56.682 L 1.90318,-56.6235 L 2.12132,-56.5576 L 2.31903,-56.4849  L 2.49441,-56.4061 L 2.64576,-56.3219 L 2.77164,-56.2332 L 2.87082,-56.1408 L 2.94236,-56.0456 L 2.98555,-55.9486  L 3,-55.8505 L 2.98555,-55.7525 L 2.94236,-55.6554 L 2.87082,-55.5603 L 2.77164,-55.4679 L 2.64576,-55.3791  L 2.49441,-55.295 L 2.31903,-55.2161 L 2.12132,-55.1434 L 1.90318,-55.0775 L 1.66671,-55.0191 L 1.41419,-54.9686  L 1.14805,-54.9267 L 0.870854,-54.8936 L 0.585271,-54.8698 L 0.294051,-54.8554 L 0,-54.8505 L 0,-52.1963  L 0.294051,-52.1915 L 0.585271,-52.1771 L 0.870854,-52.1533 L 1.14805,-52.1202 L 1.41419,-52.0782 L 1.66671,-52.0278  L 1.90318,-51.9693 L 2.12132,-51.9034 L 2.31903,-51.8307 L 2.49441,-51.7519 L 2.64576,-51.6677 L 2.77164,-51.579  L 2.87082,-51.4866 L 2.94236,-51.3914 L 2.98555,-51.2943 L 3,-51.1963 L 2.98555,-51.0983 L 2.94236,-51.0012  L 2.87082,-50.906 L 2.77164,-50.8136 L 2.64576,-50.7249 L 2.49441,-50.6408 L 2.31903,-50.5619 L 2.12132,-50.4892  L 1.90318,-50.4233 L 1.66671,-50.3649 L 1.41419,-50.3144 L 1.14805,-50.2724 L 0.870854,-50.2394 L 0.585271,-50.2155  L 0.294051,-50.2011 L 0,-50.1963 L 0,-47.5421 L 0.294051,-47.5373 L 0.585271,-47.5229 L 0.870854,-47.4991  L 1.14805,-47.466 L 1.41419,-47.424 L 1.66671,-47.3736 L 1.90318,-47.3151 L 2.12132,-47.2492 L 2.31903,-47.1765  L 2.49441,-47.0977 L 2.64576,-47.0135 L 2.77164,-46.9248 L 2.87082,-46.8324 L 2.94236,-46.7372 L 2.98555,-46.6401  L 3,-46.5421 L 2.98555,-46.4441 L 2.94236,-46.347 L 2.87082,-46.2518 L 2.77164,-46.1594 L 2.64576,-46.0707  L 2.49441,-45.9865 L 2.31903,-45.9077 L 2.12132,-45.835 L 1.90318,-45.7691 L 1.66671,-45.7106 L 1.41419,-45.6602  L 1.14805,-45.6182 L 0.870854,-45.5852 L 0.585271,-45.5613 L 0.294051,-45.5469 L 0,-45.5421 L 0,-42.8879  L 0.294051,-42.8831 L 0.585271,-42.8687 L 0.870854,-42.8448 L 1.14805,-42.8118 L 1.41419,-42.7698 L 1.66671,-42.7194  L 1.90318,-42.6609 L 2.12132,-42.595 L 2.31903,-42.5223 L 2.49441,-42.4435 L 2.64576,-42.3593 L 2.77164,-42.2706  L 2.87082,-42.1782 L 2.94236,-42.083 L 2.98555,-41.9859 L 3,-41.8879 L 2.98555,-41.7899 L 2.94236,-41.6928  L 2.87082,-41.5976 L 2.77164,-41.5052 L 2.64576,-41.4165 L 2.49441,-41.3323 L 2.31903,-41.2535 L 2.12132,-41.1808  L 1.90318,-41.1149 L 1.66671,-41.0564 L 1.41419,-41.006 L 1.14805,-40.964 L 0.870854,-40.931 L 0.585271,-40.9071  L 0.294051,-40.8927 L 0,-40.8879 L 0,-38.2337 L 0.294051,-38.2289 L 0.585271,-38.2145 L 0.870854,-38.1906  L 1.14805,-38.1576 L 1.41419,-38.1156 L 1.66671,-38.0652 L 1.90318,-38.0067 L 2.12132,-37.9408 L 2.31903,-37.8681  L 2.49441,-37.7893 L 2.64576,-37.7051 L 2.77164,-37.6164 L 2.87082,-37.524 L 2.94236,-37.4288 L 2.98555,-37.3317  L 3,-37.2337 L 2.98555,-37.1357 L 2.94236,-37.0386 L 2.87082,-36.9434 L 2.77164,-36.851 L 2.64576,-36.7623  L 2.49441,-36.6781 L 2.31903,-36.5993 L 2.12132,-36.5266 L 1.90318,-36.4607 L 1.66671,-36.4022 L 1.41419,-36.3518  L 1.14805,-36.3098 L 0.870854,-36.2768 L 0.585271,-36.2529 L 0.294051,-36.2385 L 0,-36.2337 L 0,-33.5795  L 0.294051,-33.5747 L 0.585271,-33.5603 L 0.870854,-33.5364 L 1.14805,-33.5034 L 1.41419,-33.4614 L 1.66671,-33.4109  L 1.90318,-33.3525 L 2.12132,-33.2866 L 2.31903,-33.2139 L 2.49441,-33.135 L 2.64576,-33.0509 L 2.77164,-32.9622  L 2.87082,-32.8698 L 2.94236,-32.7746 L 2.98555,-32.6775 L 3,-32.5795 L 2.98555,-32.4815 L 2.94236,-32.3844  L 2.87082,-32.2892 L 2.77164,-32.1968 L 2.64576,-32.1081 L 2.49441,-32.0239 L 2.31903,-31.9451 L 2.12132,-31.8724  L 1.90318,-31.8065 L 1.66671,-31.748 L 1.41419,-31.6976 L 1.14805,-31.6556 L 0.870854,-31.6225 L 0.585271,-31.5987  L 0.294051,-31.5843 L 0,-31.5795 L 0,-28.9253 L 0.294051,-28.9205 L 0.585271,-28.9061 L 0.870854,-28.8822  L 1.14805,-28.8491 L 1.41419,-28.8072 L 1.66671,-28.7567 L 1.90318,-28.6983 L 2.12132,-28.6324 L 2.31903,-28.5597  L 2.49441,-28.4808 L 2.64576,-28.3967 L 2.77164,-28.308 L 2.87082,-28.2156 L 2.94236,-28.1204 L 2.98555,-28.0233  L 3,-27.9253 L 2.98555,-27.8273 L 2.94236,-27.7302 L 2.87082,-27.635 L 2.77164,-27.5426 L 2.64576,-27.4539  L 2.49441,-27.3697 L 2.31903,-27.2909 L 2.12132,-27.2182 L 1.90318,-27.1523 L 1.66671,-27.0938 L 1.41419,-27.0433  L 1.14805,-27.0014 L 0.870854,-26.9683 L 0.585271,-26.9445 L 0.294051,-26.9301 L 0,-26.9253 L 0,-24.2711  L 0.294051,-24.2662 L 0.585271,-24.2518 L 0.870854,-24.228 L 1.14805,-24.1949 L 1.41419,-24.153 L 1.66671,-24.1025  L 1.90318,-24.0441 L 2.12132,-23.9782 L 2.31903,-23.9054 L 2.49441,-23.8266 L 2.64576,-23.7425 L 2.77164,-23.6537  L 2.87082,-23.5613 L 2.94236,-23.4661 L 2.98555,-23.3691 L 3,-23.2711 L 2.98555,-23.173 L 2.94236,-23.076  L 2.87082,-22.9808 L 2.77164,-22.8884 L 2.64576,-22.7997 L 2.49441,-22.7155 L 2.31903,-22.6367 L 2.12132,-22.5639  L 1.90318,-22.498 L 1.66671,-22.4396 L 1.41419,-22.3891 L 1.14805,-22.3472 L 0.870854,-22.3141 L 0.585271,-22.2903  L 0.294051,-22.2759 L 0,-22.2711 L 0,-19.6168 L 0.294051,-19.612 L 0.585271,-19.5976 L 0.870854,-19.5738  L 1.14805,-19.5407 L 1.41419,-19.4988 L 1.66671,-19.4483 L 1.90318,-19.3899 L 2.12132,-19.324 L 2.31903,-19.2512  L 2.49441,-19.1724 L 2.64576,-19.0882 L 2.77164,-18.9995 L 2.87082,-18.9071 L 2.94236,-18.8119 L 2.98555,-18.7149  L 3,-18.6168 L 2.98555,-18.5188 L 2.94236,-18.4218 L 2.87082,-18.3266 L 2.77164,-18.2342 L 2.64576,-18.1454  L 2.49441,-18.0613 L 2.31903,-17.9825 L 2.12132,-17.9097 L 1.90318,-17.8438 L 1.66671,-17.7854 L 1.41419,-17.7349  L 1.14805,-17.693 L 0.870854,-17.6599 L 0.585271,-17.6361 L 0.294051,-17.6217 L 0,-17.6168 L 0,-14.9626  L 0.294051,-14.9578 L 0.585271,-14.9434 L 0.870854,-14.9196 L 1.14805,-14.8865 L 1.41419,-14.8446 L 1.66671,-14.7941  L 1.90318,-14.7356 L 2.12132,-14.6697 L 2.31903,-14.597 L 2.49441,-14.5182 L 2.64576,-14.434 L 2.77164,-14.3453  L 2.87082,-14.2529 L 2.94236,-14.1577 L 2.98555,-14.0607 L 3,-13.9626 L 2.98555,-13.8646 L 2.94236,-13.7675  L 2.87082,-13.6723 L 2.77164,-13.58 L 2.64576,-13.4912 L 2.49441,-13.4071 L 2.31903,-13.3282 L 2.12132,-13.2555  L 1.90318,-13.1896 L 1.66671,-13.1312 L 1.41419,-13.0807 L 1.14805,-13.0388 L 0.870854,-13.0057 L 0.585271,-12.9818  L 0.294051,-12.9674 L 0,-12.9626 L 0,-10.3084 L 0.294051,-10.3036 L 0.585271,-10.2892 L 0.870854,-10.2654  L 1.14805,-10.2323 L 1.41419,-10.1903 L 1.66671,-10.1399 L 1.90318,-10.0814 L 2.12132,-10.0155 L 2.31903,-9.94282  L 2.49441,-9.86399 L 2.64576,-9.77982 L 2.77164,-9.69111 L 2.87082,-9.59871 L 2.94236,-9.50351 L 2.98555,-9.40644  L 3,-9.30842 L 2.98555,-9.21041 L 2.94236,-9.11333 L 2.87082,-9.01814 L 2.77164,-8.92574 L 2.64576,-8.83703  L 2.49441,-8.75285 L 2.31903,-8.67403 L 2.12132,-8.60132 L 1.90318,-8.53541 L 1.66671,-8.47695 L 1.41419,-8.4265  L 1.14805,-8.38454 L 0.870854,-8.35148 L 0.585271,-8.32764 L 0.294051,-8.31324 L 0,-8.30842 L 0,-5.65421  L 0.294051,-5.6494 L 0.585271,-5.635 L 0.870854,-5.61115 L 1.14805,-5.57809 L 1.41419,-5.53613 L 1.66671,-5.48568  L 1.90318,-5.42722 L 2.12132,-5.36132 L 2.31903,-5.2886 L 2.49441,-5.20978 L 2.64576,-5.12561 L 2.77164,-5.03689  L 2.87082,-4.9445 L 2.94236,-4.8493 L 2.98555,-4.75223 L 3,-4.65421 L 2.98555,-4.55619 L 2.94236,-4.45912  L 2.87082,-4.36393 L 2.77164,-4.27153 L 2.64576,-4.18281 L 2.49441,-4.09864 L 2.31903,-4.01982 L 2.12132,-3.9471  L 1.90318,-3.8812 L 1.66671,-3.82274 L 1.41419,-3.77229 L 1.14805,-3.73033 L 0.870854,-3.69727 L 0.585271,-3.67343  L 0.294051,-3.65903 L 0,-3.65421 L 0,-0 L 23,-0 z M 7.37262,-59.5096 L 7.0814,-59.524 L 6.79581,-59.5478 L 6.51862,-59.5809 L 6.25248,-59.6228 L 5.99996,-59.6733  L 5.76349,-59.7317 L 5.54535,-59.7976 L 5.34764,-59.8704 L 5.17226,-59.9492 L 5.0209,-60.0334 L 4.89503,-60.1221  L 4.79585,-60.2145 L 4.72431,-60.3097 L 4.68111,-60.4067 L 4.66667,-60.5047 L 4.68111,-60.6028 L 4.72431,-60.6998  L 4.79585,-60.795 L 4.89503,-60.8874 L 5.0209,-60.9761 L 5.17226,-61.0603 L 5.34764,-61.1391 L 5.54535,-61.2119  L 5.76349,-61.2778 L 5.99996,-61.3362 L 6.25248,-61.3867 L 6.51862,-61.4286 L 6.79581,-61.4617 L 7.0814,-61.4855  L 7.37262,-61.4999 L 7.66667,-61.5047 L 7.96072,-61.4999 L 8.25194,-61.4855 L 8.53752,-61.4617 L 8.81472,-61.4286  L 9.08086,-61.3867 L 9.33338,-61.3362 L 9.56985,-61.2778 L 9.78799,-61.2119 L 9.9857,-61.1391 L 10.1611,-61.0603  L 10.3124,-60.9761 L 10.4383,-60.8874 L 10.5375,-60.795 L 10.609,-60.6998 L 10.6522,-60.6028 L 10.6667,-60.5047  L 10.6522,-60.4067 L 10.609,-60.3097 L 10.5375,-60.2145 L 10.4383,-60.1221 L 10.3124,-60.0334 L 10.1611,-59.9492  L 9.9857,-59.8704 L 9.78799,-59.7976 L 9.56985,-59.7317 L 9.33338,-59.6733 L 9.08086,-59.6228 L 8.81472,-59.5809  L 8.53752,-59.5478 L 8.25194,-59.524 L 7.96072,-59.5096 L 7.66667,-59.5047 z M 15.0393,-59.5096 L 14.7481,-59.524 L 14.4625,-59.5478 L 14.1853,-59.5809 L 13.9191,-59.6228 L 13.6666,-59.6733  L 13.4302,-59.7317 L 13.212,-59.7976 L 13.0143,-59.8704 L 12.8389,-59.9492 L 12.6876,-60.0334 L 12.5617,-60.1221  L 12.4625,-60.2145 L 12.391,-60.3097 L 12.3478,-60.4067 L 12.3333,-60.5047 L 12.3478,-60.6028 L 12.391,-60.6998  L 12.4625,-60.795 L 12.5617,-60.8874 L 12.6876,-60.9761 L 12.8389,-61.0603 L 13.0143,-61.1391 L 13.212,-61.2119  L 13.4302,-61.2778 L 13.6666,-61.3362 L 13.9191,-61.3867 L 14.1853,-61.4286 L 14.4625,-61.4617 L 14.7481,-61.4855  L 15.0393,-61.4999 L 15.3333,-61.5047 L 15.6274,-61.4999 L 15.9186,-61.4855 L 16.2042,-61.4617 L 16.4814,-61.4286  L 16.7475,-61.3867 L 17,-61.3362 L 17.2365,-61.2778 L 17.4547,-61.2119 L 17.6524,-61.1391 L 17.8277,-61.0603  L 17.9791,-60.9761 L 18.105,-60.8874 L 18.2042,-60.795 L 18.2757,-60.6998 L 18.3189,-60.6028 L 18.3333,-60.5047  L 18.3189,-60.4067 L 18.2757,-60.3097 L 18.2042,-60.2145 L 18.105,-60.1221 L 17.9791,-60.0334 L 17.8277,-59.9492  L 17.6524,-59.8704 L 17.4547,-59.7976 L 17.2365,-59.7317 L 17,-59.6733 L 16.7475,-59.6228 L 16.4814,-59.5809  L 16.2042,-59.5478 L 15.9186,-59.524 L 15.6274,-59.5096 L 15.3333,-59.5047 z M 3.53928,-57.1825 L 3.24806,-57.1969 L 2.96248,-57.2207 L 2.68528,-57.2538 L 2.41914,-57.2957 L 2.16662,-57.3462  L 1.93015,-57.4046 L 1.71201,-57.4705 L 1.5143,-57.5432 L 1.33892,-57.6221 L 1.18757,-57.7062 L 1.06169,-57.795  L 0.962512,-57.8874 L 0.890977,-57.9826 L 0.847779,-58.0796 L 0.833333,-58.1776 L 0.847779,-58.2757 L 0.890977,-58.3727  L 0.962512,-58.4679 L 1.06169,-58.5603 L 1.18757,-58.649 L 1.33892,-58.7332 L 1.5143,-58.812 L 1.71201,-58.8847  L 1.93015,-58.9507 L 2.16662,-59.0091 L 2.41914,-59.0596 L 2.68528,-59.1015 L 2.96248,-59.1346 L 3.24806,-59.1584  L 3.53928,-59.1728 L 3.83333,-59.1776 L 4.12738,-59.1728 L 4.4186,-59.1584 L 4.70419,-59.1346 L 4.98138,-59.1015  L 5.24752,-59.0596 L 5.50004,-59.0091 L 5.73651,-58.9507 L 5.95465,-58.8847 L 6.15236,-58.812 L 6.32774,-58.7332  L 6.4791,-58.649 L 6.60497,-58.5603 L 6.70415,-58.4679 L 6.77569,-58.3727 L 6.81889,-58.2757 L 6.83333,-58.1776  L 6.81889,-58.0796 L 6.77569,-57.9826 L 6.70415,-57.8874 L 6.60497,-57.795 L 6.4791,-57.7062 L 6.32774,-57.6221  L 6.15236,-57.5432 L 5.95465,-57.4705 L 5.73651,-57.4046 L 5.50004,-57.3462 L 5.24752,-57.2957 L 4.98138,-57.2538  L 4.70419,-57.2207 L 4.4186,-57.1969 L 4.12738,-57.1825 L 3.83333,-57.1776 z M 11.2059,-57.1825 L 10.9147,-57.1969 L 10.6291,-57.2207 L 10.3519,-57.2538 L 10.0858,-57.2957 L 9.83329,-57.3462  L 9.59682,-57.4046 L 9.37868,-57.4705 L 9.18097,-57.5432 L 9.00559,-57.6221 L 8.85424,-57.7062 L 8.72836,-57.795  L 8.62918,-57.8874 L 8.55764,-57.9826 L 8.51445,-58.0796 L 8.5,-58.1776 L 8.51445,-58.2757 L 8.55764,-58.3727  L 8.62918,-58.4679 L 8.72836,-58.5603 L 8.85424,-58.649 L 9.00559,-58.7332 L 9.18097,-58.812 L 9.37868,-58.8847  L 9.59682,-58.9507 L 9.83329,-59.0091 L 10.0858,-59.0596 L 10.3519,-59.1015 L 10.6291,-59.1346 L 10.9147,-59.1584  L 11.2059,-59.1728 L 11.5,-59.1776 L 11.7941,-59.1728 L 12.0853,-59.1584 L 12.3709,-59.1346 L 12.6481,-59.1015  L 12.9142,-59.0596 L 13.1667,-59.0091 L 13.4032,-58.9507 L 13.6213,-58.8847 L 13.819,-58.812 L 13.9944,-58.7332  L 14.1458,-58.649 L 14.2716,-58.5603 L 14.3708,-58.4679 L 14.4424,-58.3727 L 14.4856,-58.2757 L 14.5,-58.1776  L 14.4856,-58.0796 L 14.4424,-57.9826 L 14.3708,-57.8874 L 14.2716,-57.795 L 14.1458,-57.7062 L 13.9944,-57.6221  L 13.819,-57.5432 L 13.6213,-57.4705 L 13.4032,-57.4046 L 13.1667,-57.3462 L 12.9142,-57.2957 L 12.6481,-57.2538  L 12.3709,-57.2207 L 12.0853,-57.1969 L 11.7941,-57.1825 L 11.5,-57.1776 z M 18.8726,-57.1825 L 18.5814,-57.1969 L 18.2958,-57.2207 L 18.0186,-57.2538 L 17.7525,-57.2957 L 17.5,-57.3462  L 17.2635,-57.4046 L 17.0453,-57.4705 L 16.8476,-57.5432 L 16.6723,-57.6221 L 16.5209,-57.7062 L 16.395,-57.795  L 16.2958,-57.8874 L 16.2243,-57.9826 L 16.1811,-58.0796 L 16.1667,-58.1776 L 16.1811,-58.2757 L 16.2243,-58.3727  L 16.2958,-58.4679 L 16.395,-58.5603 L 16.5209,-58.649 L 16.6723,-58.7332 L 16.8476,-58.812 L 17.0453,-58.8847  L 17.2635,-58.9507 L 17.5,-59.0091 L 17.7525,-59.0596 L 18.0186,-59.1015 L 18.2958,-59.1346 L 18.5814,-59.1584  L 18.8726,-59.1728 L 19.1667,-59.1776 L 19.4607,-59.1728 L 19.7519,-59.1584 L 20.0375,-59.1346 L 20.3147,-59.1015  L 20.5809,-59.0596 L 20.8334,-59.0091 L 21.0698,-58.9507 L 21.288,-58.8847 L 21.4857,-58.812 L 21.6611,-58.7332  L 21.8124,-58.649 L 21.9383,-58.5603 L 22.0375,-58.4679 L 22.109,-58.3727 L 22.1522,-58.2757 L 22.1667,-58.1776  L 22.1522,-58.0796 L 22.109,-57.9826 L 22.0375,-57.8874 L 21.9383,-57.795 L 21.8124,-57.7062 L 21.6611,-57.6221  L 21.4857,-57.5432 L 21.288,-57.4705 L 21.0698,-57.4046 L 20.8334,-57.3462 L 20.5809,-57.2957 L 20.3147,-57.2538  L 20.0375,-57.2207 L 19.7519,-57.1969 L 19.4607,-57.1825 L 19.1667,-57.1776 z M 7.37262,-54.8554 L 7.0814,-54.8698 L 6.79581,-54.8936 L 6.51862,-54.9267 L 6.25248,-54.9686 L 5.99996,-55.0191  L 5.76349,-55.0775 L 5.54535,-55.1434 L 5.34764,-55.2161 L 5.17226,-55.295 L 5.0209,-55.3791 L 4.89503,-55.4679  L 4.79585,-55.5603 L 4.72431,-55.6554 L 4.68111,-55.7525 L 4.66667,-55.8505 L 4.68111,-55.9486 L 4.72431,-56.0456  L 4.79585,-56.1408 L 4.89503,-56.2332 L 5.0209,-56.3219 L 5.17226,-56.4061 L 5.34764,-56.4849 L 5.54535,-56.5576  L 5.76349,-56.6235 L 5.99996,-56.682 L 6.25248,-56.7325 L 6.51862,-56.7744 L 6.79581,-56.8075 L 7.0814,-56.8313  L 7.37262,-56.8457 L 7.66667,-56.8505 L 7.96072,-56.8457 L 8.25194,-56.8313 L 8.53752,-56.8075 L 8.81472,-56.7744  L 9.08086,-56.7325 L 9.33338,-56.682 L 9.56985,-56.6235 L 9.78799,-56.5576 L 9.9857,-56.4849 L 10.1611,-56.4061  L 10.3124,-56.3219 L 10.4383,-56.2332 L 10.5375,-56.1408 L 10.609,-56.0456 L 10.6522,-55.9486 L 10.6667,-55.8505  L 10.6522,-55.7525 L 10.609,-55.6554 L 10.5375,-55.5603 L 10.4383,-55.4679 L 10.3124,-55.3791 L 10.1611,-55.295  L 9.9857,-55.2161 L 9.78799,-55.1434 L 9.56985,-55.0775 L 9.33338,-55.0191 L 9.08086,-54.9686 L 8.81472,-54.9267  L 8.53752,-54.8936 L 8.25194,-54.8698 L 7.96072,-54.8554 L 7.66667,-54.8505 z M 15.0393,-54.8554 L 14.7481,-54.8698 L 14.4625,-54.8936 L 14.1853,-54.9267 L 13.9191,-54.9686 L 13.6666,-55.0191  L 13.4302,-55.0775 L 13.212,-55.1434 L 13.0143,-55.2161 L 12.8389,-55.295 L 12.6876,-55.3791 L 12.5617,-55.4679  L 12.4625,-55.5603 L 12.391,-55.6554 L 12.3478,-55.7525 L 12.3333,-55.8505 L 12.3478,-55.9486 L 12.391,-56.0456  L 12.4625,-56.1408 L 12.5617,-56.2332 L 12.6876,-56.3219 L 12.8389,-56.4061 L 13.0143,-56.4849 L 13.212,-56.5576  L 13.4302,-56.6235 L 13.6666,-56.682 L 13.9191,-56.7325 L 14.1853,-56.7744 L 14.4625,-56.8075 L 14.7481,-56.8313  L 15.0393,-56.8457 L 15.3333,-56.8505 L 15.6274,-56.8457 L 15.9186,-56.8313 L 16.2042,-56.8075 L 16.4814,-56.7744  L 16.7475,-56.7325 L 17,-56.682 L 17.2365,-56.6235 L 17.4547,-56.5576 L 17.6524,-56.4849 L 17.8277,-56.4061  L 17.9791,-56.3219 L 18.105,-56.2332 L 18.2042,-56.1408 L 18.2757,-56.0456 L 18.3189,-55.9486 L 18.3333,-55.8505  L 18.3189,-55.7525 L 18.2757,-55.6554 L 18.2042,-55.5603 L 18.105,-55.4679 L 17.9791,-55.3791 L 17.8277,-55.295  L 17.6524,-55.2161 L 17.4547,-55.1434 L 17.2365,-55.0775 L 17,-55.0191 L 16.7475,-54.9686 L 16.4814,-54.9267  L 16.2042,-54.8936 L 15.9186,-54.8698 L 15.6274,-54.8554 L 15.3333,-54.8505 z M 3.53928,-52.5282 L 3.24806,-52.5426 L 2.96248,-52.5665 L 2.68528,-52.5996 L 2.41914,-52.6415 L 2.16662,-52.692  L 1.93015,-52.7504 L 1.71201,-52.8163 L 1.5143,-52.889 L 1.33892,-52.9679 L 1.18757,-53.052 L 1.06169,-53.1407  L 0.962512,-53.2331 L 0.890977,-53.3283 L 0.847779,-53.4254 L 0.833333,-53.5234 L 0.847779,-53.6214 L 0.890977,-53.7185  L 0.962512,-53.8137 L 1.06169,-53.9061 L 1.18757,-53.9948 L 1.33892,-54.079 L 1.5143,-54.1578 L 1.71201,-54.2305  L 1.93015,-54.2964 L 2.16662,-54.3549 L 2.41914,-54.4054 L 2.68528,-54.4473 L 2.96248,-54.4804 L 3.24806,-54.5042  L 3.53928,-54.5186 L 3.83333,-54.5234 L 4.12738,-54.5186 L 4.4186,-54.5042 L 4.70419,-54.4804 L 4.98138,-54.4473  L 5.24752,-54.4054 L 5.50004,-54.3549 L 5.73651,-54.2964 L 5.95465,-54.2305 L 6.15236,-54.1578 L 6.32774,-54.079  L 6.4791,-53.9948 L 6.60497,-53.9061 L 6.70415,-53.8137 L 6.77569,-53.7185 L 6.81889,-53.6214 L 6.83333,-53.5234  L 6.81889,-53.4254 L 6.77569,-53.3283 L 6.70415,-53.2331 L 6.60497,-53.1407 L 6.4791,-53.052 L 6.32774,-52.9679  L 6.15236,-52.889 L 5.95465,-52.8163 L 5.73651,-52.7504 L 5.50004,-52.692 L 5.24752,-52.6415 L 4.98138,-52.5996  L 4.70419,-52.5665 L 4.4186,-52.5426 L 4.12738,-52.5282 L 3.83333,-52.5234 z M 11.2059,-52.5282 L 10.9147,-52.5426 L 10.6291,-52.5665 L 10.3519,-52.5996 L 10.0858,-52.6415 L 9.83329,-52.692  L 9.59682,-52.7504 L 9.37868,-52.8163 L 9.18097,-52.889 L 9.00559,-52.9679 L 8.85424,-53.052 L 8.72836,-53.1407  L 8.62918,-53.2331 L 8.55764,-53.3283 L 8.51445,-53.4254 L 8.5,-53.5234 L 8.51445,-53.6214 L 8.55764,-53.7185  L 8.62918,-53.8137 L 8.72836,-53.9061 L 8.85424,-53.9948 L 9.00559,-54.079 L 9.18097,-54.1578 L 9.37868,-54.2305  L 9.59682,-54.2964 L 9.83329,-54.3549 L 10.0858,-54.4054 L 10.3519,-54.4473 L 10.6291,-54.4804 L 10.9147,-54.5042  L 11.2059,-54.5186 L 11.5,-54.5234 L 11.7941,-54.5186 L 12.0853,-54.5042 L 12.3709,-54.4804 L 12.6481,-54.4473  L 12.9142,-54.4054 L 13.1667,-54.3549 L 13.4032,-54.2964 L 13.6213,-54.2305 L 13.819,-54.1578 L 13.9944,-54.079  L 14.1458,-53.9948 L 14.2716,-53.9061 L 14.3708,-53.8137 L 14.4424,-53.7185 L 14.4856,-53.6214 L 14.5,-53.5234  L 14.4856,-53.4254 L 14.4424,-53.3283 L 14.3708,-53.2331 L 14.2716,-53.1407 L 14.1458,-53.052 L 13.9944,-52.9679  L 13.819,-52.889 L 13.6213,-52.8163 L 13.4032,-52.7504 L 13.1667,-52.692 L 12.9142,-52.6415 L 12.6481,-52.5996  L 12.3709,-52.5665 L 12.0853,-52.5426 L 11.7941,-52.5282 L 11.5,-52.5234 z M 18.8726,-52.5282 L 18.5814,-52.5426 L 18.2958,-52.5665 L 18.0186,-52.5996 L 17.7525,-52.6415 L 17.5,-52.692  L 17.2635,-52.7504 L 17.0453,-52.8163 L 16.8476,-52.889 L 16.6723,-52.9679 L 16.5209,-53.052 L 16.395,-53.1407  L 16.2958,-53.2331 L 16.2243,-53.3283 L 16.1811,-53.4254 L 16.1667,-53.5234 L 16.1811,-53.6214 L 16.2243,-53.7185  L 16.2958,-53.8137 L 16.395,-53.9061 L 16.5209,-53.9948 L 16.6723,-54.079 L 16.8476,-54.1578 L 17.0453,-54.2305  L 17.2635,-54.2964 L 17.5,-54.3549 L 17.7525,-54.4054 L 18.0186,-54.4473 L 18.2958,-54.4804 L 18.5814,-54.5042  L 18.8726,-54.5186 L 19.1667,-54.5234 L 19.4607,-54.5186 L 19.7519,-54.5042 L 20.0375,-54.4804 L 20.3147,-54.4473  L 20.5809,-54.4054 L 20.8334,-54.3549 L 21.0698,-54.2964 L 21.288,-54.2305 L 21.4857,-54.1578 L 21.6611,-54.079  L 21.8124,-53.9948 L 21.9383,-53.9061 L 22.0375,-53.8137 L 22.109,-53.7185 L 22.1522,-53.6214 L 22.1667,-53.5234  L 22.1522,-53.4254 L 22.109,-53.3283 L 22.0375,-53.2331 L 21.9383,-53.1407 L 21.8124,-53.052 L 21.6611,-52.9679  L 21.4857,-52.889 L 21.288,-52.8163 L 21.0698,-52.7504 L 20.8334,-52.692 L 20.5809,-52.6415 L 20.3147,-52.5996  L 20.0375,-52.5665 L 19.7519,-52.5426 L 19.4607,-52.5282 L 19.1667,-52.5234 z M 7.37262,-50.2011 L 7.0814,-50.2155 L 6.79581,-50.2394 L 6.51862,-50.2724 L 6.25248,-50.3144 L 5.99996,-50.3649  L 5.76349,-50.4233 L 5.54535,-50.4892 L 5.34764,-50.5619 L 5.17226,-50.6408 L 5.0209,-50.7249 L 4.89503,-50.8136  L 4.79585,-50.906 L 4.72431,-51.0012 L 4.68111,-51.0983 L 4.66667,-51.1963 L 4.68111,-51.2943 L 4.72431,-51.3914  L 4.79585,-51.4866 L 4.89503,-51.579 L 5.0209,-51.6677 L 5.17226,-51.7519 L 5.34764,-51.8307 L 5.54535,-51.9034  L 5.76349,-51.9693 L 5.99996,-52.0278 L 6.25248,-52.0782 L 6.51862,-52.1202 L 6.79581,-52.1533 L 7.0814,-52.1771  L 7.37262,-52.1915 L 7.66667,-52.1963 L 7.96072,-52.1915 L 8.25194,-52.1771 L 8.53752,-52.1533 L 8.81472,-52.1202  L 9.08086,-52.0782 L 9.33338,-52.0278 L 9.56985,-51.9693 L 9.78799,-51.9034 L 9.9857,-51.8307 L 10.1611,-51.7519  L 10.3124,-51.6677 L 10.4383,-51.579 L 10.5375,-51.4866 L 10.609,-51.3914 L 10.6522,-51.2943 L 10.6667,-51.1963  L 10.6522,-51.0983 L 10.609,-51.0012 L 10.5375,-50.906 L 10.4383,-50.8136 L 10.3124,-50.7249 L 10.1611,-50.6408  L 9.9857,-50.5619 L 9.78799,-50.4892 L 9.56985,-50.4233 L 9.33338,-50.3649 L 9.08086,-50.3144 L 8.81472,-50.2724  L 8.53752,-50.2394 L 8.25194,-50.2155 L 7.96072,-50.2011 L 7.66667,-50.1963 z M 15.0393,-50.2011 L 14.7481,-50.2155 L 14.4625,-50.2394 L 14.1853,-50.2724 L 13.9191,-50.3144 L 13.6666,-50.3649  L 13.4302,-50.4233 L 13.212,-50.4892 L 13.0143,-50.5619 L 12.8389,-50.6408 L 12.6876,-50.7249 L 12.5617,-50.8136  L 12.4625,-50.906 L 12.391,-51.0012 L 12.3478,-51.0983 L 12.3333,-51.1963 L 12.3478,-51.2943 L 12.391,-51.3914  L 12.4625,-51.4866 L 12.5617,-51.579 L 12.6876,-51.6677 L 12.8389,-51.7519 L 13.0143,-51.8307 L 13.212,-51.9034  L 13.4302,-51.9693 L 13.6666,-52.0278 L 13.9191,-52.0782 L 14.1853,-52.1202 L 14.4625,-52.1533 L 14.7481,-52.1771  L 15.0393,-52.1915 L 15.3333,-52.1963 L 15.6274,-52.1915 L 15.9186,-52.1771 L 16.2042,-52.1533 L 16.4814,-52.1202  L 16.7475,-52.0782 L 17,-52.0278 L 17.2365,-51.9693 L 17.4547,-51.9034 L 17.6524,-51.8307 L 17.8277,-51.7519  L 17.9791,-51.6677 L 18.105,-51.579 L 18.2042,-51.4866 L 18.2757,-51.3914 L 18.3189,-51.2943 L 18.3333,-51.1963  L 18.3189,-51.0983 L 18.2757,-51.0012 L 18.2042,-50.906 L 18.105,-50.8136 L 17.9791,-50.7249 L 17.8277,-50.6408  L 17.6524,-50.5619 L 17.4547,-50.4892 L 17.2365,-50.4233 L 17,-50.3649 L 16.7475,-50.3144 L 16.4814,-50.2724  L 16.2042,-50.2394 L 15.9186,-50.2155 L 15.6274,-50.2011 L 15.3333,-50.1963 z M 3.53928,-47.874 L 3.24806,-47.8884 L 2.96248,-47.9123 L 2.68528,-47.9453 L 2.41914,-47.9873 L 2.16662,-48.0377  L 1.93015,-48.0962 L 1.71201,-48.1621 L 1.5143,-48.2348 L 1.33892,-48.3136 L 1.18757,-48.3978 L 1.06169,-48.4865  L 0.962512,-48.5789 L 0.890977,-48.6741 L 0.847779,-48.7712 L 0.833333,-48.8692 L 0.847779,-48.9672 L 0.890977,-49.0643  L 0.962512,-49.1595 L 1.06169,-49.2519 L 1.18757,-49.3406 L 1.33892,-49.4248 L 1.5143,-49.5036 L 1.71201,-49.5763  L 1.93015,-49.6422 L 2.16662,-49.7007 L 2.41914,-49.7511 L 2.68528,-49.7931 L 2.96248,-49.8262 L 3.24806,-49.85  L 3.53928,-49.8644 L 3.83333,-49.8692 L 4.12738,-49.8644 L 4.4186,-49.85 L 4.70419,-49.8262 L 4.98138,-49.7931  L 5.24752,-49.7511 L 5.50004,-49.7007 L 5.73651,-49.6422 L 5.95465,-49.5763 L 6.15236,-49.5036 L 6.32774,-49.4248  L 6.4791,-49.3406 L 6.60497,-49.2519 L 6.70415,-49.1595 L 6.77569,-49.0643 L 6.81889,-48.9672 L 6.83333,-48.8692  L 6.81889,-48.7712 L 6.77569,-48.6741 L 6.70415,-48.5789 L 6.60497,-48.4865 L 6.4791,-48.3978 L 6.32774,-48.3136  L 6.15236,-48.2348 L 5.95465,-48.1621 L 5.73651,-48.0962 L 5.50004,-48.0377 L 5.24752,-47.9873 L 4.98138,-47.9453  L 4.70419,-47.9123 L 4.4186,-47.8884 L 4.12738,-47.874 L 3.83333,-47.8692 z M 11.2059,-47.874 L 10.9147,-47.8884 L 10.6291,-47.9123 L 10.3519,-47.9453 L 10.0858,-47.9873 L 9.83329,-48.0377  L 9.59682,-48.0962 L 9.37868,-48.1621 L 9.18097,-48.2348 L 9.00559,-48.3136 L 8.85424,-48.3978 L 8.72836,-48.4865  L 8.62918,-48.5789 L 8.55764,-48.6741 L 8.51445,-48.7712 L 8.5,-48.8692 L 8.51445,-48.9672 L 8.55764,-49.0643  L 8.62918,-49.1595 L 8.72836,-49.2519 L 8.85424,-49.3406 L 9.00559,-49.4248 L 9.18097,-49.5036 L 9.37868,-49.5763  L 9.59682,-49.6422 L 9.83329,-49.7007 L 10.0858,-49.7511 L 10.3519,-49.7931 L 10.6291,-49.8262 L 10.9147,-49.85  L 11.2059,-49.8644 L 11.5,-49.8692 L 11.7941,-49.8644 L 12.0853,-49.85 L 12.3709,-49.8262 L 12.6481,-49.7931  L 12.9142,-49.7511 L 13.1667,-49.7007 L 13.4032,-49.6422 L 13.6213,-49.5763 L 13.819,-49.5036 L 13.9944,-49.4248  L 14.1458,-49.3406 L 14.2716,-49.2519 L 14.3708,-49.1595 L 14.4424,-49.0643 L 14.4856,-48.9672 L 14.5,-48.8692  L 14.4856,-48.7712 L 14.4424,-48.6741 L 14.3708,-48.5789 L 14.2716,-48.4865 L 14.1458,-48.3978 L 13.9944,-48.3136  L 13.819,-48.2348 L 13.6213,-48.1621 L 13.4032,-48.0962 L 13.1667,-48.0377 L 12.9142,-47.9873 L 12.6481,-47.9453  L 12.3709,-47.9123 L 12.0853,-47.8884 L 11.7941,-47.874 L 11.5,-47.8692 z M 18.8726,-47.874 L 18.5814,-47.8884 L 18.2958,-47.9123 L 18.0186,-47.9453 L 17.7525,-47.9873 L 17.5,-48.0377  L 17.2635,-48.0962 L 17.0453,-48.1621 L 16.8476,-48.2348 L 16.6723,-48.3136 L 16.5209,-48.3978 L 16.395,-48.4865  L 16.2958,-48.5789 L 16.2243,-48.6741 L 16.1811,-48.7712 L 16.1667,-48.8692 L 16.1811,-48.9672 L 16.2243,-49.0643  L 16.2958,-49.1595 L 16.395,-49.2519 L 16.5209,-49.3406 L 16.6723,-49.4248 L 16.8476,-49.5036 L 17.0453,-49.5763  L 17.2635,-49.6422 L 17.5,-49.7007 L 17.7525,-49.7511 L 18.0186,-49.7931 L 18.2958,-49.8262 L 18.5814,-49.85  L 18.8726,-49.8644 L 19.1667,-49.8692 L 19.4607,-49.8644 L 19.7519,-49.85 L 20.0375,-49.8262 L 20.3147,-49.7931  L 20.5809,-49.7511 L 20.8334,-49.7007 L 21.0698,-49.6422 L 21.288,-49.5763 L 21.4857,-49.5036 L 21.6611,-49.4248  L 21.8124,-49.3406 L 21.9383,-49.2519 L 22.0375,-49.1595 L 22.109,-49.0643 L 22.1522,-48.9672 L 22.1667,-48.8692  L 22.1522,-48.7712 L 22.109,-48.6741 L 22.0375,-48.5789 L 21.9383,-48.4865 L 21.8124,-48.3978 L 21.6611,-48.3136  L 21.4857,-48.2348 L 21.288,-48.1621 L 21.0698,-48.0962 L 20.8334,-48.0377 L 20.5809,-47.9873 L 20.3147,-47.9453  L 20.0375,-47.9123 L 19.7519,-47.8884 L 19.4607,-47.874 L 19.1667,-47.8692 z M 7.37262,-45.5469 L 7.0814,-45.5613 L 6.79581,-45.5852 L 6.51862,-45.6182 L 6.25248,-45.6602 L 5.99996,-45.7106  L 5.76349,-45.7691 L 5.54535,-45.835 L 5.34764,-45.9077 L 5.17226,-45.9865 L 5.0209,-46.0707 L 4.89503,-46.1594  L 4.79585,-46.2518 L 4.72431,-46.347 L 4.68111,-46.4441 L 4.66667,-46.5421 L 4.68111,-46.6401 L 4.72431,-46.7372  L 4.79585,-46.8324 L 4.89503,-46.9248 L 5.0209,-47.0135 L 5.17226,-47.0977 L 5.34764,-47.1765 L 5.54535,-47.2492  L 5.76349,-47.3151 L 5.99996,-47.3736 L 6.25248,-47.424 L 6.51862,-47.466 L 6.79581,-47.4991 L 7.0814,-47.5229  L 7.37262,-47.5373 L 7.66667,-47.5421 L 7.96072,-47.5373 L 8.25194,-47.5229 L 8.53752,-47.4991 L 8.81472,-47.466  L 9.08086,-47.424 L 9.33338,-47.3736 L 9.56985,-47.3151 L 9.78799,-47.2492 L 9.9857,-47.1765 L 10.1611,-47.0977  L 10.3124,-47.0135 L 10.4383,-46.9248 L 10.5375,-46.8324 L 10.609,-46.7372 L 10.6522,-46.6401 L 10.6667,-46.5421  L 10.6522,-46.4441 L 10.609,-46.347 L 10.5375,-46.2518 L 10.4383,-46.1594 L 10.3124,-46.0707 L 10.1611,-45.9865  L 9.9857,-45.9077 L 9.78799,-45.835 L 9.56985,-45.7691 L 9.33338,-45.7106 L 9.08086,-45.6602 L 8.81472,-45.6182  L 8.53752,-45.5852 L 8.25194,-45.5613 L 7.96072,-45.5469 L 7.66667,-45.5421 z M 15.0393,-45.5469 L 14.7481,-45.5613 L 14.4625,-45.5852 L 14.1853,-45.6182 L 13.9191,-45.6602 L 13.6666,-45.7106  L 13.4302,-45.7691 L 13.212,-45.835 L 13.0143,-45.9077 L 12.8389,-45.9865 L 12.6876,-46.0707 L 12.5617,-46.1594  L 12.4625,-46.2518 L 12.391,-46.347 L 12.3478,-46.4441 L 12.3333,-46.5421 L 12.3478,-46.6401 L 12.391,-46.7372  L 12.4625,-46.8324 L 12.5617,-46.9248 L 12.6876,-47.0135 L 12.8389,-47.0977 L 13.0143,-47.1765 L 13.212,-47.2492  L 13.4302,-47.3151 L 13.6666,-47.3736 L 13.9191,-47.424 L 14.1853,-47.466 L 14.4625,-47.4991 L 14.7481,-47.5229  L 15.0393,-47.5373 L 15.3333,-47.5421 L 15.6274,-47.5373 L 15.9186,-47.5229 L 16.2042,-47.4991 L 16.4814,-47.466  L 16.7475,-47.424 L 17,-47.3736 L 17.2365,-47.3151 L 17.4547,-47.2492 L 17.6524,-47.1765 L 17.8277,-47.0977  L 17.9791,-47.0135 L 18.105,-46.9248 L 18.2042,-46.8324 L 18.2757,-46.7372 L 18.3189,-46.6401 L 18.3333,-46.5421  L 18.3189,-46.4441 L 18.2757,-46.347 L 18.2042,-46.2518 L 18.105,-46.1594 L 17.9791,-46.0707 L 17.8277,-45.9865  L 17.6524,-45.9077 L 17.4547,-45.835 L 17.2365,-45.7691 L 17,-45.7106 L 16.7475,-45.6602 L 16.4814,-45.6182  L 16.2042,-45.5852 L 15.9186,-45.5613 L 15.6274,-45.5469 L 15.3333,-45.5421 z M 3.53928,-43.2198 L 3.24806,-43.2342 L 2.96248,-43.2581 L 2.68528,-43.2911 L 2.41914,-43.3331 L 2.16662,-43.3835  L 1.93015,-43.442 L 1.71201,-43.5079 L 1.5143,-43.5806 L 1.33892,-43.6594 L 1.18757,-43.7436 L 1.06169,-43.8323  L 0.962512,-43.9247 L 0.890977,-44.0199 L 0.847779,-44.117 L 0.833333,-44.215 L 0.847779,-44.313 L 0.890977,-44.4101  L 0.962512,-44.5053 L 1.06169,-44.5977 L 1.18757,-44.6864 L 1.33892,-44.7706 L 1.5143,-44.8494 L 1.71201,-44.9221  L 1.93015,-44.988 L 2.16662,-45.0465 L 2.41914,-45.0969 L 2.68528,-45.1389 L 2.96248,-45.1719 L 3.24806,-45.1958  L 3.53928,-45.2102 L 3.83333,-45.215 L 4.12738,-45.2102 L 4.4186,-45.1958 L 4.70419,-45.1719 L 4.98138,-45.1389  L 5.24752,-45.0969 L 5.50004,-45.0465 L 5.73651,-44.988 L 5.95465,-44.9221 L 6.15236,-44.8494 L 6.32774,-44.7706  L 6.4791,-44.6864 L 6.60497,-44.5977 L 6.70415,-44.5053 L 6.77569,-44.4101 L 6.81889,-44.313 L 6.83333,-44.215  L 6.81889,-44.117 L 6.77569,-44.0199 L 6.70415,-43.9247 L 6.60497,-43.8323 L 6.4791,-43.7436 L 6.32774,-43.6594  L 6.15236,-43.5806 L 5.95465,-43.5079 L 5.73651,-43.442 L 5.50004,-43.3835 L 5.24752,-43.3331 L 4.98138,-43.2911  L 4.70419,-43.2581 L 4.4186,-43.2342 L 4.12738,-43.2198 L 3.83333,-43.215 z M 11.2059,-43.2198 L 10.9147,-43.2342 L 10.6291,-43.2581 L 10.3519,-43.2911 L 10.0858,-43.3331 L 9.83329,-43.3835  L 9.59682,-43.442 L 9.37868,-43.5079 L 9.18097,-43.5806 L 9.00559,-43.6594 L 8.85424,-43.7436 L 8.72836,-43.8323  L 8.62918,-43.9247 L 8.55764,-44.0199 L 8.51445,-44.117 L 8.5,-44.215 L 8.51445,-44.313 L 8.55764,-44.4101  L 8.62918,-44.5053 L 8.72836,-44.5977 L 8.85424,-44.6864 L 9.00559,-44.7706 L 9.18097,-44.8494 L 9.37868,-44.9221  L 9.59682,-44.988 L 9.83329,-45.0465 L 10.0858,-45.0969 L 10.3519,-45.1389 L 10.6291,-45.1719 L 10.9147,-45.1958  L 11.2059,-45.2102 L 11.5,-45.215 L 11.7941,-45.2102 L 12.0853,-45.1958 L 12.3709,-45.1719 L 12.6481,-45.1389  L 12.9142,-45.0969 L 13.1667,-45.0465 L 13.4032,-44.988 L 13.6213,-44.9221 L 13.819,-44.8494 L 13.9944,-44.7706  L 14.1458,-44.6864 L 14.2716,-44.5977 L 14.3708,-44.5053 L 14.4424,-44.4101 L 14.4856,-44.313 L 14.5,-44.215  L 14.4856,-44.117 L 14.4424,-44.0199 L 14.3708,-43.9247 L 14.2716,-43.8323 L 14.1458,-43.7436 L 13.9944,-43.6594  L 13.819,-43.5806 L 13.6213,-43.5079 L 13.4032,-43.442 L 13.1667,-43.3835 L 12.9142,-43.3331 L 12.6481,-43.2911  L 12.3709,-43.2581 L 12.0853,-43.2342 L 11.7941,-43.2198 L 11.5,-43.215 z M 18.8726,-43.2198 L 18.5814,-43.2342 L 18.2958,-43.2581 L 18.0186,-43.2911 L 17.7525,-43.3331 L 17.5,-43.3835  L 17.2635,-43.442 L 17.0453,-43.5079 L 16.8476,-43.5806 L 16.6723,-43.6594 L 16.5209,-43.7436 L 16.395,-43.8323  L 16.2958,-43.9247 L 16.2243,-44.0199 L 16.1811,-44.117 L 16.1667,-44.215 L 16.1811,-44.313 L 16.2243,-44.4101  L 16.2958,-44.5053 L 16.395,-44.5977 L 16.5209,-44.6864 L 16.6723,-44.7706 L 16.8476,-44.8494 L 17.0453,-44.9221  L 17.2635,-44.988 L 17.5,-45.0465 L 17.7525,-45.0969 L 18.0186,-45.1389 L 18.2958,-45.1719 L 18.5814,-45.1958  L 18.8726,-45.2102 L 19.1667,-45.215 L 19.4607,-45.2102 L 19.7519,-45.1958 L 20.0375,-45.1719 L 20.3147,-45.1389  L 20.5809,-45.0969 L 20.8334,-45.0465 L 21.0698,-44.988 L 21.288,-44.9221 L 21.4857,-44.8494 L 21.6611,-44.7706  L 21.8124,-44.6864 L 21.9383,-44.5977 L 22.0375,-44.5053 L 22.109,-44.4101 L 22.1522,-44.313 L 22.1667,-44.215  L 22.1522,-44.117 L 22.109,-44.0199 L 22.0375,-43.9247 L 21.9383,-43.8323 L 21.8124,-43.7436 L 21.6611,-43.6594  L 21.4857,-43.5806 L 21.288,-43.5079 L 21.0698,-43.442 L 20.8334,-43.3835 L 20.5809,-43.3331 L 20.3147,-43.2911  L 20.0375,-43.2581 L 19.7519,-43.2342 L 19.4607,-43.2198 L 19.1667,-43.215 z M 7.37262,-40.8927 L 7.0814,-40.9071 L 6.79581,-40.931 L 6.51862,-40.964 L 6.25248,-41.006 L 5.99996,-41.0564  L 5.76349,-41.1149 L 5.54535,-41.1808 L 5.34764,-41.2535 L 5.17226,-41.3323 L 5.0209,-41.4165 L 4.89503,-41.5052  L 4.79585,-41.5976 L 4.72431,-41.6928 L 4.68111,-41.7899 L 4.66667,-41.8879 L 4.68111,-41.9859 L 4.72431,-42.083  L 4.79585,-42.1782 L 4.89503,-42.2706 L 5.0209,-42.3593 L 5.17226,-42.4435 L 5.34764,-42.5223 L 5.54535,-42.595  L 5.76349,-42.6609 L 5.99996,-42.7194 L 6.25248,-42.7698 L 6.51862,-42.8118 L 6.79581,-42.8448 L 7.0814,-42.8687  L 7.37262,-42.8831 L 7.66667,-42.8879 L 7.96072,-42.8831 L 8.25194,-42.8687 L 8.53752,-42.8448 L 8.81472,-42.8118  L 9.08086,-42.7698 L 9.33338,-42.7194 L 9.56985,-42.6609 L 9.78799,-42.595 L 9.9857,-42.5223 L 10.1611,-42.4435  L 10.3124,-42.3593 L 10.4383,-42.2706 L 10.5375,-42.1782 L 10.609,-42.083 L 10.6522,-41.9859 L 10.6667,-41.8879  L 10.6522,-41.7899 L 10.609,-41.6928 L 10.5375,-41.5976 L 10.4383,-41.5052 L 10.3124,-41.4165 L 10.1611,-41.3323  L 9.9857,-41.2535 L 9.78799,-41.1808 L 9.56985,-41.1149 L 9.33338,-41.0564 L 9.08086,-41.006 L 8.81472,-40.964  L 8.53752,-40.931 L 8.25194,-40.9071 L 7.96072,-40.8927 L 7.66667,-40.8879 z M 15.0393,-40.8927 L 14.7481,-40.9071 L 14.4625,-40.931 L 14.1853,-40.964 L 13.9191,-41.006 L 13.6666,-41.0564  L 13.4302,-41.1149 L 13.212,-41.1808 L 13.0143,-41.2535 L 12.8389,-41.3323 L 12.6876,-41.4165 L 12.5617,-41.5052  L 12.4625,-41.5976 L 12.391,-41.6928 L 12.3478,-41.7899 L 12.3333,-41.8879 L 12.3478,-41.9859 L 12.391,-42.083  L 12.4625,-42.1782 L 12.5617,-42.2706 L 12.6876,-42.3593 L 12.8389,-42.4435 L 13.0143,-42.5223 L 13.212,-42.595  L 13.4302,-42.6609 L 13.6666,-42.7194 L 13.9191,-42.7698 L 14.1853,-42.8118 L 14.4625,-42.8448 L 14.7481,-42.8687  L 15.0393,-42.8831 L 15.3333,-42.8879 L 15.6274,-42.8831 L 15.9186,-42.8687 L 16.2042,-42.8448 L 16.4814,-42.8118  L 16.7475,-42.7698 L 17,-42.7194 L 17.2365,-42.6609 L 17.4547,-42.595 L 17.6524,-42.5223 L 17.8277,-42.4435  L 17.9791,-42.3593 L 18.105,-42.2706 L 18.2042,-42.1782 L 18.2757,-42.083 L 18.3189,-41.9859 L 18.3333,-41.8879  L 18.3189,-41.7899 L 18.2757,-41.6928 L 18.2042,-41.5976 L 18.105,-41.5052 L 17.9791,-41.4165 L 17.8277,-41.3323  L 17.6524,-41.2535 L 17.4547,-41.1808 L 17.2365,-41.1149 L 17,-41.0564 L 16.7475,-41.006 L 16.4814,-40.964  L 16.2042,-40.931 L 15.9186,-40.9071 L 15.6274,-40.8927 L 15.3333,-40.8879 z M 3.53928,-38.5656 L 3.24806,-38.58 L 2.96248,-38.6039 L 2.68528,-38.6369 L 2.41914,-38.6789 L 2.16662,-38.7293  L 1.93015,-38.7878 L 1.71201,-38.8537 L 1.5143,-38.9264 L 1.33892,-39.0052 L 1.18757,-39.0894 L 1.06169,-39.1781  L 0.962512,-39.2705 L 0.890977,-39.3657 L 0.847779,-39.4628 L 0.833333,-39.5608 L 0.847779,-39.6588 L 0.890977,-39.7559  L 0.962512,-39.8511 L 1.06169,-39.9435 L 1.18757,-40.0322 L 1.33892,-40.1164 L 1.5143,-40.1952 L 1.71201,-40.2679  L 1.93015,-40.3338 L 2.16662,-40.3923 L 2.41914,-40.4427 L 2.68528,-40.4847 L 2.96248,-40.5177 L 3.24806,-40.5416  L 3.53928,-40.556 L 3.83333,-40.5608 L 4.12738,-40.556 L 4.4186,-40.5416 L 4.70419,-40.5177 L 4.98138,-40.4847  L 5.24752,-40.4427 L 5.50004,-40.3923 L 5.73651,-40.3338 L 5.95465,-40.2679 L 6.15236,-40.1952 L 6.32774,-40.1164  L 6.4791,-40.0322 L 6.60497,-39.9435 L 6.70415,-39.8511 L 6.77569,-39.7559 L 6.81889,-39.6588 L 6.83333,-39.5608  L 6.81889,-39.4628 L 6.77569,-39.3657 L 6.70415,-39.2705 L 6.60497,-39.1781 L 6.4791,-39.0894 L 6.32774,-39.0052  L 6.15236,-38.9264 L 5.95465,-38.8537 L 5.73651,-38.7878 L 5.50004,-38.7293 L 5.24752,-38.6789 L 4.98138,-38.6369  L 4.70419,-38.6039 L 4.4186,-38.58 L 4.12738,-38.5656 L 3.83333,-38.5608 z M 11.2059,-38.5656 L 10.9147,-38.58 L 10.6291,-38.6039 L 10.3519,-38.6369 L 10.0858,-38.6789 L 9.83329,-38.7293  L 9.59682,-38.7878 L 9.37868,-38.8537 L 9.18097,-38.9264 L 9.00559,-39.0052 L 8.85424,-39.0894 L 8.72836,-39.1781  L 8.62918,-39.2705 L 8.55764,-39.3657 L 8.51445,-39.4628 L 8.5,-39.5608 L 8.51445,-39.6588 L 8.55764,-39.7559  L 8.62918,-39.8511 L 8.72836,-39.9435 L 8.85424,-40.0322 L 9.00559,-40.1164 L 9.18097,-40.1952 L 9.37868,-40.2679  L 9.59682,-40.3338 L 9.83329,-40.3923 L 10.0858,-40.4427 L 10.3519,-40.4847 L 10.6291,-40.5177 L 10.9147,-40.5416  L 11.2059,-40.556 L 11.5,-40.5608 L 11.7941,-40.556 L 12.0853,-40.5416 L 12.3709,-40.5177 L 12.6481,-40.4847  L 12.9142,-40.4427 L 13.1667,-40.3923 L 13.4032,-40.3338 L 13.6213,-40.2679 L 13.819,-40.1952 L 13.9944,-40.1164  L 14.1458,-40.0322 L 14.2716,-39.9435 L 14.3708,-39.8511 L 14.4424,-39.7559 L 14.4856,-39.6588 L 14.5,-39.5608  L 14.4856,-39.4628 L 14.4424,-39.3657 L 14.3708,-39.2705 L 14.2716,-39.1781 L 14.1458,-39.0894 L 13.9944,-39.0052  L 13.819,-38.9264 L 13.6213,-38.8537 L 13.4032,-38.7878 L 13.1667,-38.7293 L 12.9142,-38.6789 L 12.6481,-38.6369  L 12.3709,-38.6039 L 12.0853,-38.58 L 11.7941,-38.5656 L 11.5,-38.5608 z M 18.8726,-38.5656 L 18.5814,-38.58 L 18.2958,-38.6039 L 18.0186,-38.6369 L 17.7525,-38.6789 L 17.5,-38.7293  L 17.2635,-38.7878 L 17.0453,-38.8537 L 16.8476,-38.9264 L 16.6723,-39.0052 L 16.5209,-39.0894 L 16.395,-39.1781  L 16.2958,-39.2705 L 16.2243,-39.3657 L 16.1811,-39.4628 L 16.1667,-39.5608 L 16.1811,-39.6588 L 16.2243,-39.7559  L 16.2958,-39.8511 L 16.395,-39.9435 L 16.5209,-40.0322 L 16.6723,-40.1164 L 16.8476,-40.1952 L 17.0453,-40.2679  L 17.2635,-40.3338 L 17.5,-40.3923 L 17.7525,-40.4427 L 18.0186,-40.4847 L 18.2958,-40.5177 L 18.5814,-40.5416  L 18.8726,-40.556 L 19.1667,-40.5608 L 19.4607,-40.556 L 19.7519,-40.5416 L 20.0375,-40.5177 L 20.3147,-40.4847  L 20.5809,-40.4427 L 20.8334,-40.3923 L 21.0698,-40.3338 L 21.288,-40.2679 L 21.4857,-40.1952 L 21.6611,-40.1164  L 21.8124,-40.0322 L 21.9383,-39.9435 L 22.0375,-39.8511 L 22.109,-39.7559 L 22.1522,-39.6588 L 22.1667,-39.5608  L 22.1522,-39.4628 L 22.109,-39.3657 L 22.0375,-39.2705 L 21.9383,-39.1781 L 21.8124,-39.0894 L 21.6611,-39.0052  L 21.4857,-38.9264 L 21.288,-38.8537 L 21.0698,-38.7878 L 20.8334,-38.7293 L 20.5809,-38.6789 L 20.3147,-38.6369  L 20.0375,-38.6039 L 19.7519,-38.58 L 19.4607,-38.5656 L 19.1667,-38.5608 z M 7.37262,-36.2385 L 7.0814,-36.2529 L 6.79581,-36.2768 L 6.51862,-36.3098 L 6.25248,-36.3518 L 5.99996,-36.4022  L 5.76349,-36.4607 L 5.54535,-36.5266 L 5.34764,-36.5993 L 5.17226,-36.6781 L 5.0209,-36.7623 L 4.89503,-36.851  L 4.79585,-36.9434 L 4.72431,-37.0386 L 4.68111,-37.1357 L 4.66667,-37.2337 L 4.68111,-37.3317 L 4.72431,-37.4288  L 4.79585,-37.524 L 4.89503,-37.6164 L 5.0209,-37.7051 L 5.17226,-37.7893 L 5.34764,-37.8681 L 5.54535,-37.9408  L 5.76349,-38.0067 L 5.99996,-38.0652 L 6.25248,-38.1156 L 6.51862,-38.1576 L 6.79581,-38.1906 L 7.0814,-38.2145  L 7.37262,-38.2289 L 7.66667,-38.2337 L 7.96072,-38.2289 L 8.25194,-38.2145 L 8.53752,-38.1906 L 8.81472,-38.1576  L 9.08086,-38.1156 L 9.33338,-38.0652 L 9.56985,-38.0067 L 9.78799,-37.9408 L 9.9857,-37.8681 L 10.1611,-37.7893  L 10.3124,-37.7051 L 10.4383,-37.6164 L 10.5375,-37.524 L 10.609,-37.4288 L 10.6522,-37.3317 L 10.6667,-37.2337  L 10.6522,-37.1357 L 10.609,-37.0386 L 10.5375,-36.9434 L 10.4383,-36.851 L 10.3124,-36.7623 L 10.1611,-36.6781  L 9.9857,-36.5993 L 9.78799,-36.5266 L 9.56985,-36.4607 L 9.33338,-36.4022 L 9.08086,-36.3518 L 8.81472,-36.3098  L 8.53752,-36.2768 L 8.25194,-36.2529 L 7.96072,-36.2385 L 7.66667,-36.2337 z M 15.0393,-36.2385 L 14.7481,-36.2529 L 14.4625,-36.2768 L 14.1853,-36.3098 L 13.9191,-36.3518 L 13.6666,-36.4022  L 13.4302,-36.4607 L 13.212,-36.5266 L 13.0143,-36.5993 L 12.8389,-36.6781 L 12.6876,-36.7623 L 12.5617,-36.851  L 12.4625,-36.9434 L 12.391,-37.0386 L 12.3478,-37.1357 L 12.3333,-37.2337 L 12.3478,-37.3317 L 12.391,-37.4288  L 12.4625,-37.524 L 12.5617,-37.6164 L 12.6876,-37.7051 L 12.8389,-37.7893 L 13.0143,-37.8681 L 13.212,-37.9408  L 13.4302,-38.0067 L 13.6666,-38.0652 L 13.9191,-38.1156 L 14.1853,-38.1576 L 14.4625,-38.1906 L 14.7481,-38.2145  L 15.0393,-38.2289 L 15.3333,-38.2337 L 15.6274,-38.2289 L 15.9186,-38.2145 L 16.2042,-38.1906 L 16.4814,-38.1576  L 16.7475,-38.1156 L 17,-38.0652 L 17.2365,-38.0067 L 17.4547,-37.9408 L 17.6524,-37.8681 L 17.8277,-37.7893  L 17.9791,-37.7051 L 18.105,-37.6164 L 18.2042,-37.524 L 18.2757,-37.4288 L 18.3189,-37.3317 L 18.3333,-37.2337  L 18.3189,-37.1357 L 18.2757,-37.0386 L 18.2042,-36.9434 L 18.105,-36.851 L 17.9791,-36.7623 L 17.8277,-36.6781  L 17.6524,-36.5993 L 17.4547,-36.5266 L 17.2365,-36.4607 L 17,-36.4022 L 16.7475,-36.3518 L 16.4814,-36.3098  L 16.2042,-36.2768 L 15.9186,-36.2529 L 15.6274,-36.2385 L 15.3333,-36.2337 z M 3.53928,-33.9114 L 3.24806,-33.9258 L 2.96248,-33.9496 L 2.68528,-33.9827 L 2.41914,-34.0247 L 2.16662,-34.0751  L 1.93015,-34.1336 L 1.71201,-34.1995 L 1.5143,-34.2722 L 1.33892,-34.351 L 1.18757,-34.4352 L 1.06169,-34.5239  L 0.962512,-34.6163 L 0.890977,-34.7115 L 0.847779,-34.8086 L 0.833333,-34.9066 L 0.847779,-35.0046 L 0.890977,-35.1017  L 0.962512,-35.1969 L 1.06169,-35.2893 L 1.18757,-35.378 L 1.33892,-35.4622 L 1.5143,-35.541 L 1.71201,-35.6137  L 1.93015,-35.6796 L 2.16662,-35.7381 L 2.41914,-35.7885 L 2.68528,-35.8305 L 2.96248,-35.8635 L 3.24806,-35.8874  L 3.53928,-35.9018 L 3.83333,-35.9066 L 4.12738,-35.9018 L 4.4186,-35.8874 L 4.70419,-35.8635 L 4.98138,-35.8305  L 5.24752,-35.7885 L 5.50004,-35.7381 L 5.73651,-35.6796 L 5.95465,-35.6137 L 6.15236,-35.541 L 6.32774,-35.4622  L 6.4791,-35.378 L 6.60497,-35.2893 L 6.70415,-35.1969 L 6.77569,-35.1017 L 6.81889,-35.0046 L 6.83333,-34.9066  L 6.81889,-34.8086 L 6.77569,-34.7115 L 6.70415,-34.6163 L 6.60497,-34.5239 L 6.4791,-34.4352 L 6.32774,-34.351  L 6.15236,-34.2722 L 5.95465,-34.1995 L 5.73651,-34.1336 L 5.50004,-34.0751 L 5.24752,-34.0247 L 4.98138,-33.9827  L 4.70419,-33.9496 L 4.4186,-33.9258 L 4.12738,-33.9114 L 3.83333,-33.9066 z M 11.2059,-33.9114 L 10.9147,-33.9258 L 10.6291,-33.9496 L 10.3519,-33.9827 L 10.0858,-34.0247 L 9.83329,-34.0751  L 9.59682,-34.1336 L 9.37868,-34.1995 L 9.18097,-34.2722 L 9.00559,-34.351 L 8.85424,-34.4352 L 8.72836,-34.5239  L 8.62918,-34.6163 L 8.55764,-34.7115 L 8.51445,-34.8086 L 8.5,-34.9066 L 8.51445,-35.0046 L 8.55764,-35.1017  L 8.62918,-35.1969 L 8.72836,-35.2893 L 8.85424,-35.378 L 9.00559,-35.4622 L 9.18097,-35.541 L 9.37868,-35.6137  L 9.59682,-35.6796 L 9.83329,-35.7381 L 10.0858,-35.7885 L 10.3519,-35.8305 L 10.6291,-35.8635 L 10.9147,-35.8874  L 11.2059,-35.9018 L 11.5,-35.9066 L 11.7941,-35.9018 L 12.0853,-35.8874 L 12.3709,-35.8635 L 12.6481,-35.8305  L 12.9142,-35.7885 L 13.1667,-35.7381 L 13.4032,-35.6796 L 13.6213,-35.6137 L 13.819,-35.541 L 13.9944,-35.4622  L 14.1458,-35.378 L 14.2716,-35.2893 L 14.3708,-35.1969 L 14.4424,-35.1017 L 14.4856,-35.0046 L 14.5,-34.9066  L 14.4856,-34.8086 L 14.4424,-34.7115 L 14.3708,-34.6163 L 14.2716,-34.5239 L 14.1458,-34.4352 L 13.9944,-34.351  L 13.819,-34.2722 L 13.6213,-34.1995 L 13.4032,-34.1336 L 13.1667,-34.0751 L 12.9142,-34.0247 L 12.6481,-33.9827  L 12.3709,-33.9496 L 12.0853,-33.9258 L 11.7941,-33.9114 L 11.5,-33.9066 z M 18.8726,-33.9114 L 18.5814,-33.9258 L 18.2958,-33.9496 L 18.0186,-33.9827 L 17.7525,-34.0247 L 17.5,-34.0751  L 17.2635,-34.1336 L 17.0453,-34.1995 L 16.8476,-34.2722 L 16.6723,-34.351 L 16.5209,-34.4352 L 16.395,-34.5239  L 16.2958,-34.6163 L 16.2243,-34.7115 L 16.1811,-34.8086 L 16.1667,-34.9066 L 16.1811,-35.0046 L 16.2243,-35.1017  L 16.2958,-35.1969 L 16.395,-35.2893 L 16.5209,-35.378 L 16.6723,-35.4622 L 16.8476,-35.541 L 17.0453,-35.6137  L 17.2635,-35.6796 L 17.5,-35.7381 L 17.7525,-35.7885 L 18.0186,-35.8305 L 18.2958,-35.8635 L 18.5814,-35.8874  L 18.8726,-35.9018 L 19.1667,-35.9066 L 19.4607,-35.9018 L 19.7519,-35.8874 L 20.0375,-35.8635 L 20.3147,-35.8305  L 20.5809,-35.7885 L 20.8334,-35.7381 L 21.0698,-35.6796 L 21.288,-35.6137 L 21.4857,-35.541 L 21.6611,-35.4622  L 21.8124,-35.378 L 21.9383,-35.2893 L 22.0375,-35.1969 L 22.109,-35.1017 L 22.1522,-35.0046 L 22.1667,-34.9066  L 22.1522,-34.8086 L 22.109,-34.7115 L 22.0375,-34.6163 L 21.9383,-34.5239 L 21.8124,-34.4352 L 21.6611,-34.351  L 21.4857,-34.2722 L 21.288,-34.1995 L 21.0698,-34.1336 L 20.8334,-34.0751 L 20.5809,-34.0247 L 20.3147,-33.9827  L 20.0375,-33.9496 L 19.7519,-33.9258 L 19.4607,-33.9114 L 19.1667,-33.9066 z M 7.37262,-31.5843 L 7.0814,-31.5987 L 6.79581,-31.6225 L 6.51862,-31.6556 L 6.25248,-31.6976 L 5.99996,-31.748  L 5.76349,-31.8065 L 5.54535,-31.8724 L 5.34764,-31.9451 L 5.17226,-32.0239 L 5.0209,-32.1081 L 4.89503,-32.1968  L 4.79585,-32.2892 L 4.72431,-32.3844 L 4.68111,-32.4815 L 4.66667,-32.5795 L 4.68111,-32.6775 L 4.72431,-32.7746  L 4.79585,-32.8698 L 4.89503,-32.9622 L 5.0209,-33.0509 L 5.17226,-33.135 L 5.34764,-33.2139 L 5.54535,-33.2866  L 5.76349,-33.3525 L 5.99996,-33.4109 L 6.25248,-33.4614 L 6.51862,-33.5034 L 6.79581,-33.5364 L 7.0814,-33.5603  L 7.37262,-33.5747 L 7.66667,-33.5795 L 7.96072,-33.5747 L 8.25194,-33.5603 L 8.53752,-33.5364 L 8.81472,-33.5034  L 9.08086,-33.4614 L 9.33338,-33.4109 L 9.56985,-33.3525 L 9.78799,-33.2866 L 9.9857,-33.2139 L 10.1611,-33.135  L 10.3124,-33.0509 L 10.4383,-32.9622 L 10.5375,-32.8698 L 10.609,-32.7746 L 10.6522,-32.6775 L 10.6667,-32.5795  L 10.6522,-32.4815 L 10.609,-32.3844 L 10.5375,-32.2892 L 10.4383,-32.1968 L 10.3124,-32.1081 L 10.1611,-32.0239  L 9.9857,-31.9451 L 9.78799,-31.8724 L 9.56985,-31.8065 L 9.33338,-31.748 L 9.08086,-31.6976 L 8.81472,-31.6556  L 8.53752,-31.6225 L 8.25194,-31.5987 L 7.96072,-31.5843 L 7.66667,-31.5795 z M 15.0393,-31.5843 L 14.7481,-31.5987 L 14.4625,-31.6225 L 14.1853,-31.6556 L 13.9191,-31.6976 L 13.6666,-31.748  L 13.4302,-31.8065 L 13.212,-31.8724 L 13.0143,-31.9451 L 12.8389,-32.0239 L 12.6876,-32.1081 L 12.5617,-32.1968  L 12.4625,-32.2892 L 12.391,-32.3844 L 12.3478,-32.4815 L 12.3333,-32.5795 L 12.3478,-32.6775 L 12.391,-32.7746  L 12.4625,-32.8698 L 12.5617,-32.9622 L 12.6876,-33.0509 L 12.8389,-33.135 L 13.0143,-33.2139 L 13.212,-33.2866  L 13.4302,-33.3525 L 13.6666,-33.4109 L 13.9191,-33.4614 L 14.1853,-33.5034 L 14.4625,-33.5364 L 14.7481,-33.5603  L 15.0393,-33.5747 L 15.3333,-33.5795 L 15.6274,-33.5747 L 15.9186,-33.5603 L 16.2042,-33.5364 L 16.4814,-33.5034  L 16.7475,-33.4614 L 17,-33.4109 L 17.2365,-33.3525 L 17.4547,-33.2866 L 17.6524,-33.2139 L 17.8277,-33.135  L 17.9791,-33.0509 L 18.105,-32.9622 L 18.2042,-32.8698 L 18.2757,-32.7746 L 18.3189,-32.6775 L 18.3333,-32.5795  L 18.3189,-32.4815 L 18.2757,-32.3844 L 18.2042,-32.2892 L 18.105,-32.1968 L 17.9791,-32.1081 L 17.8277,-32.0239  L 17.6524,-31.9451 L 17.4547,-31.8724 L 17.2365,-31.8065 L 17,-31.748 L 16.7475,-31.6976 L 16.4814,-31.6556  L 16.2042,-31.6225 L 15.9186,-31.5987 L 15.6274,-31.5843 L 15.3333,-31.5795 z M 3.53928,-29.2572 L 3.24806,-29.2716 L 2.96248,-29.2954 L 2.68528,-29.3285 L 2.41914,-29.3705 L 2.16662,-29.4209  L 1.93015,-29.4794 L 1.71201,-29.5453 L 1.5143,-29.618 L 1.33892,-29.6968 L 1.18757,-29.781 L 1.06169,-29.8697  L 0.962512,-29.9621 L 0.890977,-30.0573 L 0.847779,-30.1544 L 0.833333,-30.2524 L 0.847779,-30.3504 L 0.890977,-30.4475  L 0.962512,-30.5427 L 1.06169,-30.6351 L 1.18757,-30.7238 L 1.33892,-30.8079 L 1.5143,-30.8868 L 1.71201,-30.9595  L 1.93015,-31.0254 L 2.16662,-31.0838 L 2.41914,-31.1343 L 2.68528,-31.1763 L 2.96248,-31.2093 L 3.24806,-31.2332  L 3.53928,-31.2476 L 3.83333,-31.2524 L 4.12738,-31.2476 L 4.4186,-31.2332 L 4.70419,-31.2093 L 4.98138,-31.1763  L 5.24752,-31.1343 L 5.50004,-31.0838 L 5.73651,-31.0254 L 5.95465,-30.9595 L 6.15236,-30.8868 L 6.32774,-30.8079  L 6.4791,-30.7238 L 6.60497,-30.6351 L 6.70415,-30.5427 L 6.77569,-30.4475 L 6.81889,-30.3504 L 6.83333,-30.2524  L 6.81889,-30.1544 L 6.77569,-30.0573 L 6.70415,-29.9621 L 6.60497,-29.8697 L 6.4791,-29.781 L 6.32774,-29.6968  L 6.15236,-29.618 L 5.95465,-29.5453 L 5.73651,-29.4794 L 5.50004,-29.4209 L 5.24752,-29.3705 L 4.98138,-29.3285  L 4.70419,-29.2954 L 4.4186,-29.2716 L 4.12738,-29.2572 L 3.83333,-29.2524 z M 11.2059,-29.2572 L 10.9147,-29.2716 L 10.6291,-29.2954 L 10.3519,-29.3285 L 10.0858,-29.3705 L 9.83329,-29.4209  L 9.59682,-29.4794 L 9.37868,-29.5453 L 9.18097,-29.618 L 9.00559,-29.6968 L 8.85424,-29.781 L 8.72836,-29.8697  L 8.62918,-29.9621 L 8.55764,-30.0573 L 8.51445,-30.1544 L 8.5,-30.2524 L 8.51445,-30.3504 L 8.55764,-30.4475  L 8.62918,-30.5427 L 8.72836,-30.6351 L 8.85424,-30.7238 L 9.00559,-30.8079 L 9.18097,-30.8868 L 9.37868,-30.9595  L 9.59682,-31.0254 L 9.83329,-31.0838 L 10.0858,-31.1343 L 10.3519,-31.1763 L 10.6291,-31.2093 L 10.9147,-31.2332  L 11.2059,-31.2476 L 11.5,-31.2524 L 11.7941,-31.2476 L 12.0853,-31.2332 L 12.3709,-31.2093 L 12.6481,-31.1763  L 12.9142,-31.1343 L 13.1667,-31.0838 L 13.4032,-31.0254 L 13.6213,-30.9595 L 13.819,-30.8868 L 13.9944,-30.8079  L 14.1458,-30.7238 L 14.2716,-30.6351 L 14.3708,-30.5427 L 14.4424,-30.4475 L 14.4856,-30.3504 L 14.5,-30.2524  L 14.4856,-30.1544 L 14.4424,-30.0573 L 14.3708,-29.9621 L 14.2716,-29.8697 L 14.1458,-29.781 L 13.9944,-29.6968  L 13.819,-29.618 L 13.6213,-29.5453 L 13.4032,-29.4794 L 13.1667,-29.4209 L 12.9142,-29.3705 L 12.6481,-29.3285  L 12.3709,-29.2954 L 12.0853,-29.2716 L 11.7941,-29.2572 L 11.5,-29.2524 z M 18.8726,-29.2572 L 18.5814,-29.2716 L 18.2958,-29.2954 L 18.0186,-29.3285 L 17.7525,-29.3705 L 17.5,-29.4209  L 17.2635,-29.4794 L 17.0453,-29.5453 L 16.8476,-29.618 L 16.6723,-29.6968 L 16.5209,-29.781 L 16.395,-29.8697  L 16.2958,-29.9621 L 16.2243,-30.0573 L 16.1811,-30.1544 L 16.1667,-30.2524 L 16.1811,-30.3504 L 16.2243,-30.4475  L 16.2958,-30.5427 L 16.395,-30.6351 L 16.5209,-30.7238 L 16.6723,-30.8079 L 16.8476,-30.8868 L 17.0453,-30.9595  L 17.2635,-31.0254 L 17.5,-31.0838 L 17.7525,-31.1343 L 18.0186,-31.1763 L 18.2958,-31.2093 L 18.5814,-31.2332  L 18.8726,-31.2476 L 19.1667,-31.2524 L 19.4607,-31.2476 L 19.7519,-31.2332 L 20.0375,-31.2093 L 20.3147,-31.1763  L 20.5809,-31.1343 L 20.8334,-31.0838 L 21.0698,-31.0254 L 21.288,-30.9595 L 21.4857,-30.8868 L 21.6611,-30.8079  L 21.8124,-30.7238 L 21.9383,-30.6351 L 22.0375,-30.5427 L 22.109,-30.4475 L 22.1522,-30.3504 L 22.1667,-30.2524  L 22.1522,-30.1544 L 22.109,-30.0573 L 22.0375,-29.9621 L 21.9383,-29.8697 L 21.8124,-29.781 L 21.6611,-29.6968  L 21.4857,-29.618 L 21.288,-29.5453 L 21.0698,-29.4794 L 20.8334,-29.4209 L 20.5809,-29.3705 L 20.3147,-29.3285  L 20.0375,-29.2954 L 19.7519,-29.2716 L 19.4607,-29.2572 L 19.1667,-29.2524 z M 7.37262,-26.9301 L 7.0814,-26.9445 L 6.79581,-26.9683 L 6.51862,-27.0014 L 6.25248,-27.0433 L 5.99996,-27.0938  L 5.76349,-27.1523 L 5.54535,-27.2182 L 5.34764,-27.2909 L 5.17226,-27.3697 L 5.0209,-27.4539 L 4.89503,-27.5426  L 4.79585,-27.635 L 4.72431,-27.7302 L 4.68111,-27.8273 L 4.66667,-27.9253 L 4.68111,-28.0233 L 4.72431,-28.1204  L 4.79585,-28.2156 L 4.89503,-28.308 L 5.0209,-28.3967 L 5.17226,-28.4808 L 5.34764,-28.5597 L 5.54535,-28.6324  L 5.76349,-28.6983 L 5.99996,-28.7567 L 6.25248,-28.8072 L 6.51862,-28.8491 L 6.79581,-28.8822 L 7.0814,-28.9061  L 7.37262,-28.9205 L 7.66667,-28.9253 L 7.96072,-28.9205 L 8.25194,-28.9061 L 8.53752,-28.8822 L 8.81472,-28.8491  L 9.08086,-28.8072 L 9.33338,-28.7567 L 9.56985,-28.6983 L 9.78799,-28.6324 L 9.9857,-28.5597 L 10.1611,-28.4808  L 10.3124,-28.3967 L 10.4383,-28.308 L 10.5375,-28.2156 L 10.609,-28.1204 L 10.6522,-28.0233 L 10.6667,-27.9253  L 10.6522,-27.8273 L 10.609,-27.7302 L 10.5375,-27.635 L 10.4383,-27.5426 L 10.3124,-27.4539 L 10.1611,-27.3697  L 9.9857,-27.2909 L 9.78799,-27.2182 L 9.56985,-27.1523 L 9.33338,-27.0938 L 9.08086,-27.0433 L 8.81472,-27.0014  L 8.53752,-26.9683 L 8.25194,-26.9445 L 7.96072,-26.9301 L 7.66667,-26.9253 z M 15.0393,-26.9301 L 14.7481,-26.9445 L 14.4625,-26.9683 L 14.1853,-27.0014 L 13.9191,-27.0433 L 13.6666,-27.0938  L 13.4302,-27.1523 L 13.212,-27.2182 L 13.0143,-27.2909 L 12.8389,-27.3697 L 12.6876,-27.4539 L 12.5617,-27.5426  L 12.4625,-27.635 L 12.391,-27.7302 L 12.3478,-27.8273 L 12.3333,-27.9253 L 12.3478,-28.0233 L 12.391,-28.1204  L 12.4625,-28.2156 L 12.5617,-28.308 L 12.6876,-28.3967 L 12.8389,-28.4808 L 13.0143,-28.5597 L 13.212,-28.6324  L 13.4302,-28.6983 L 13.6666,-28.7567 L 13.9191,-28.8072 L 14.1853,-28.8491 L 14.4625,-28.8822 L 14.7481,-28.9061  L 15.0393,-28.9205 L 15.3333,-28.9253 L 15.6274,-28.9205 L 15.9186,-28.9061 L 16.2042,-28.8822 L 16.4814,-28.8491  L 16.7475,-28.8072 L 17,-28.7567 L 17.2365,-28.6983 L 17.4547,-28.6324 L 17.6524,-28.5597 L 17.8277,-28.4808  L 17.9791,-28.3967 L 18.105,-28.308 L 18.2042,-28.2156 L 18.2757,-28.1204 L 18.3189,-28.0233 L 18.3333,-27.9253  L 18.3189,-27.8273 L 18.2757,-27.7302 L 18.2042,-27.635 L 18.105,-27.5426 L 17.9791,-27.4539 L 17.8277,-27.3697  L 17.6524,-27.2909 L 17.4547,-27.2182 L 17.2365,-27.1523 L 17,-27.0938 L 16.7475,-27.0433 L 16.4814,-27.0014  L 16.2042,-26.9683 L 15.9186,-26.9445 L 15.6274,-26.9301 L 15.3333,-26.9253 z M 3.53928,-24.603 L 3.24806,-24.6174 L 2.96248,-24.6412 L 2.68528,-24.6743 L 2.41914,-24.7162 L 2.16662,-24.7667  L 1.93015,-24.8252 L 1.71201,-24.8911 L 1.5143,-24.9638 L 1.33892,-25.0426 L 1.18757,-25.1268 L 1.06169,-25.2155  L 0.962512,-25.3079 L 0.890977,-25.4031 L 0.847779,-25.5001 L 0.833333,-25.5982 L 0.847779,-25.6962 L 0.890977,-25.7933  L 0.962512,-25.8884 L 1.06169,-25.9808 L 1.18757,-26.0696 L 1.33892,-26.1537 L 1.5143,-26.2326 L 1.71201,-26.3053  L 1.93015,-26.3712 L 2.16662,-26.4296 L 2.41914,-26.4801 L 2.68528,-26.522 L 2.96248,-26.5551 L 3.24806,-26.5789  L 3.53928,-26.5933 L 3.83333,-26.5982 L 4.12738,-26.5933 L 4.4186,-26.5789 L 4.70419,-26.5551 L 4.98138,-26.522  L 5.24752,-26.4801 L 5.50004,-26.4296 L 5.73651,-26.3712 L 5.95465,-26.3053 L 6.15236,-26.2326 L 6.32774,-26.1537  L 6.4791,-26.0696 L 6.60497,-25.9808 L 6.70415,-25.8884 L 6.77569,-25.7933 L 6.81889,-25.6962 L 6.83333,-25.5982  L 6.81889,-25.5001 L 6.77569,-25.4031 L 6.70415,-25.3079 L 6.60497,-25.2155 L 6.4791,-25.1268 L 6.32774,-25.0426  L 6.15236,-24.9638 L 5.95465,-24.8911 L 5.73651,-24.8252 L 5.50004,-24.7667 L 5.24752,-24.7162 L 4.98138,-24.6743  L 4.70419,-24.6412 L 4.4186,-24.6174 L 4.12738,-24.603 L 3.83333,-24.5982 z M 11.2059,-24.603 L 10.9147,-24.6174 L 10.6291,-24.6412 L 10.3519,-24.6743 L 10.0858,-24.7162 L 9.83329,-24.7667  L 9.59682,-24.8252 L 9.37868,-24.8911 L 9.18097,-24.9638 L 9.00559,-25.0426 L 8.85424,-25.1268 L 8.72836,-25.2155  L 8.62918,-25.3079 L 8.55764,-25.4031 L 8.51445,-25.5001 L 8.5,-25.5982 L 8.51445,-25.6962 L 8.55764,-25.7933  L 8.62918,-25.8884 L 8.72836,-25.9808 L 8.85424,-26.0696 L 9.00559,-26.1537 L 9.18097,-26.2326 L 9.37868,-26.3053  L 9.59682,-26.3712 L 9.83329,-26.4296 L 10.0858,-26.4801 L 10.3519,-26.522 L 10.6291,-26.5551 L 10.9147,-26.5789  L 11.2059,-26.5933 L 11.5,-26.5982 L 11.7941,-26.5933 L 12.0853,-26.5789 L 12.3709,-26.5551 L 12.6481,-26.522  L 12.9142,-26.4801 L 13.1667,-26.4296 L 13.4032,-26.3712 L 13.6213,-26.3053 L 13.819,-26.2326 L 13.9944,-26.1537  L 14.1458,-26.0696 L 14.2716,-25.9808 L 14.3708,-25.8884 L 14.4424,-25.7933 L 14.4856,-25.6962 L 14.5,-25.5982  L 14.4856,-25.5001 L 14.4424,-25.4031 L 14.3708,-25.3079 L 14.2716,-25.2155 L 14.1458,-25.1268 L 13.9944,-25.0426  L 13.819,-24.9638 L 13.6213,-24.8911 L 13.4032,-24.8252 L 13.1667,-24.7667 L 12.9142,-24.7162 L 12.6481,-24.6743  L 12.3709,-24.6412 L 12.0853,-24.6174 L 11.7941,-24.603 L 11.5,-24.5982 z M 18.8726,-24.603 L 18.5814,-24.6174 L 18.2958,-24.6412 L 18.0186,-24.6743 L 17.7525,-24.7162 L 17.5,-24.7667  L 17.2635,-24.8252 L 17.0453,-24.8911 L 16.8476,-24.9638 L 16.6723,-25.0426 L 16.5209,-25.1268 L 16.395,-25.2155  L 16.2958,-25.3079 L 16.2243,-25.4031 L 16.1811,-25.5001 L 16.1667,-25.5982 L 16.1811,-25.6962 L 16.2243,-25.7933  L 16.2958,-25.8884 L 16.395,-25.9808 L 16.5209,-26.0696 L 16.6723,-26.1537 L 16.8476,-26.2326 L 17.0453,-26.3053  L 17.2635,-26.3712 L 17.5,-26.4296 L 17.7525,-26.4801 L 18.0186,-26.522 L 18.2958,-26.5551 L 18.5814,-26.5789  L 18.8726,-26.5933 L 19.1667,-26.5982 L 19.4607,-26.5933 L 19.7519,-26.5789 L 20.0375,-26.5551 L 20.3147,-26.522  L 20.5809,-26.4801 L 20.8334,-26.4296 L 21.0698,-26.3712 L 21.288,-26.3053 L 21.4857,-26.2326 L 21.6611,-26.1537  L 21.8124,-26.0696 L 21.9383,-25.9808 L 22.0375,-25.8884 L 22.109,-25.7933 L 22.1522,-25.6962 L 22.1667,-25.5982  L 22.1522,-25.5001 L 22.109,-25.4031 L 22.0375,-25.3079 L 21.9383,-25.2155 L 21.8124,-25.1268 L 21.6611,-25.0426  L 21.4857,-24.9638 L 21.288,-24.8911 L 21.0698,-24.8252 L 20.8334,-24.7667 L 20.5809,-24.7162 L 20.3147,-24.6743  L 20.0375,-24.6412 L 19.7519,-24.6174 L 19.4607,-24.603 L 19.1667,-24.5982 z M 7.37262,-22.2759 L 7.0814,-22.2903 L 6.79581,-22.3141 L 6.51862,-22.3472 L 6.25248,-22.3891 L 5.99996,-22.4396  L 5.76349,-22.498 L 5.54535,-22.5639 L 5.34764,-22.6367 L 5.17226,-22.7155 L 5.0209,-22.7997 L 4.89503,-22.8884  L 4.79585,-22.9808 L 4.72431,-23.076 L 4.68111,-23.173 L 4.66667,-23.2711 L 4.68111,-23.3691 L 4.72431,-23.4661  L 4.79585,-23.5613 L 4.89503,-23.6537 L 5.0209,-23.7425 L 5.17226,-23.8266 L 5.34764,-23.9054 L 5.54535,-23.9782  L 5.76349,-24.0441 L 5.99996,-24.1025 L 6.25248,-24.153 L 6.51862,-24.1949 L 6.79581,-24.228 L 7.0814,-24.2518  L 7.37262,-24.2662 L 7.66667,-24.2711 L 7.96072,-24.2662 L 8.25194,-24.2518 L 8.53752,-24.228 L 8.81472,-24.1949  L 9.08086,-24.153 L 9.33338,-24.1025 L 9.56985,-24.0441 L 9.78799,-23.9782 L 9.9857,-23.9054 L 10.1611,-23.8266  L 10.3124,-23.7425 L 10.4383,-23.6537 L 10.5375,-23.5613 L 10.609,-23.4661 L 10.6522,-23.3691 L 10.6667,-23.2711  L 10.6522,-23.173 L 10.609,-23.076 L 10.5375,-22.9808 L 10.4383,-22.8884 L 10.3124,-22.7997 L 10.1611,-22.7155  L 9.9857,-22.6367 L 9.78799,-22.5639 L 9.56985,-22.498 L 9.33338,-22.4396 L 9.08086,-22.3891 L 8.81472,-22.3472  L 8.53752,-22.3141 L 8.25194,-22.2903 L 7.96072,-22.2759 L 7.66667,-22.2711 z M 15.0393,-22.2759 L 14.7481,-22.2903 L 14.4625,-22.3141 L 14.1853,-22.3472 L 13.9191,-22.3891 L 13.6666,-22.4396  L 13.4302,-22.498 L 13.212,-22.5639 L 13.0143,-22.6367 L 12.8389,-22.7155 L 12.6876,-22.7997 L 12.5617,-22.8884  L 12.4625,-22.9808 L 12.391,-23.076 L 12.3478,-23.173 L 12.3333,-23.2711 L 12.3478,-23.3691 L 12.391,-23.4661  L 12.4625,-23.5613 L 12.5617,-23.6537 L 12.6876,-23.7425 L 12.8389,-23.8266 L 13.0143,-23.9054 L 13.212,-23.9782  L 13.4302,-24.0441 L 13.6666,-24.1025 L 13.9191,-24.153 L 14.1853,-24.1949 L 14.4625,-24.228 L 14.7481,-24.2518  L 15.0393,-24.2662 L 15.3333,-24.2711 L 15.6274,-24.2662 L 15.9186,-24.2518 L 16.2042,-24.228 L 16.4814,-24.1949  L 16.7475,-24.153 L 17,-24.1025 L 17.2365,-24.0441 L 17.4547,-23.9782 L 17.6524,-23.9054 L 17.8277,-23.8266  L 17.9791,-23.7425 L 18.105,-23.6537 L 18.2042,-23.5613 L 18.2757,-23.4661 L 18.3189,-23.3691 L 18.3333,-23.2711  L 18.3189,-23.173 L 18.2757,-23.076 L 18.2042,-22.9808 L 18.105,-22.8884 L 17.9791,-22.7997 L 17.8277,-22.7155  L 17.6524,-22.6367 L 17.4547,-22.5639 L 17.2365,-22.498 L 17,-22.4396 L 16.7475,-22.3891 L 16.4814,-22.3472  L 16.2042,-22.3141 L 15.9186,-22.2903 L 15.6274,-22.2759 L 15.3333,-22.2711 z M 3.53928,-19.9488 L 3.24806,-19.9632 L 2.96248,-19.987 L 2.68528,-20.0201 L 2.41914,-20.062 L 2.16662,-20.1125  L 1.93015,-20.1709 L 1.71201,-20.2368 L 1.5143,-20.3096 L 1.33892,-20.3884 L 1.18757,-20.4726 L 1.06169,-20.5613  L 0.962512,-20.6537 L 0.890977,-20.7489 L 0.847779,-20.8459 L 0.833333,-20.944 L 0.847779,-21.042 L 0.890977,-21.139  L 0.962512,-21.2342 L 1.06169,-21.3266 L 1.18757,-21.4153 L 1.33892,-21.4995 L 1.5143,-21.5783 L 1.71201,-21.6511  L 1.93015,-21.717 L 2.16662,-21.7754 L 2.41914,-21.8259 L 2.68528,-21.8678 L 2.96248,-21.9009 L 3.24806,-21.9247  L 3.53928,-21.9391 L 3.83333,-21.944 L 4.12738,-21.9391 L 4.4186,-21.9247 L 4.70419,-21.9009 L 4.98138,-21.8678  L 5.24752,-21.8259 L 5.50004,-21.7754 L 5.73651,-21.717 L 5.95465,-21.6511 L 6.15236,-21.5783 L 6.32774,-21.4995  L 6.4791,-21.4153 L 6.60497,-21.3266 L 6.70415,-21.2342 L 6.77569,-21.139 L 6.81889,-21.042 L 6.83333,-20.944  L 6.81889,-20.8459 L 6.77569,-20.7489 L 6.70415,-20.6537 L 6.60497,-20.5613 L 6.4791,-20.4726 L 6.32774,-20.3884  L 6.15236,-20.3096 L 5.95465,-20.2368 L 5.73651,-20.1709 L 5.50004,-20.1125 L 5.24752,-20.062 L 4.98138,-20.0201  L 4.70419,-19.987 L 4.4186,-19.9632 L 4.12738,-19.9488 L 3.83333,-19.944 z M 11.2059,-19.9488 L 10.9147,-19.9632 L 10.6291,-19.987 L 10.3519,-20.0201 L 10.0858,-20.062 L 9.83329,-20.1125  L 9.59682,-20.1709 L 9.37868,-20.2368 L 9.18097,-20.3096 L 9.00559,-20.3884 L 8.85424,-20.4726 L 8.72836,-20.5613  L 8.62918,-20.6537 L 8.55764,-20.7489 L 8.51445,-20.8459 L 8.5,-20.944 L 8.51445,-21.042 L 8.55764,-21.139  L 8.62918,-21.2342 L 8.72836,-21.3266 L 8.85424,-21.4153 L 9.00559,-21.4995 L 9.18097,-21.5783 L 9.37868,-21.6511  L 9.59682,-21.717 L 9.83329,-21.7754 L 10.0858,-21.8259 L 10.3519,-21.8678 L 10.6291,-21.9009 L 10.9147,-21.9247  L 11.2059,-21.9391 L 11.5,-21.944 L 11.7941,-21.9391 L 12.0853,-21.9247 L 12.3709,-21.9009 L 12.6481,-21.8678  L 12.9142,-21.8259 L 13.1667,-21.7754 L 13.4032,-21.717 L 13.6213,-21.6511 L 13.819,-21.5783 L 13.9944,-21.4995  L 14.1458,-21.4153 L 14.2716,-21.3266 L 14.3708,-21.2342 L 14.4424,-21.139 L 14.4856,-21.042 L 14.5,-20.944  L 14.4856,-20.8459 L 14.4424,-20.7489 L 14.3708,-20.6537 L 14.2716,-20.5613 L 14.1458,-20.4726 L 13.9944,-20.3884  L 13.819,-20.3096 L 13.6213,-20.2368 L 13.4032,-20.1709 L 13.1667,-20.1125 L 12.9142,-20.062 L 12.6481,-20.0201  L 12.3709,-19.987 L 12.0853,-19.9632 L 11.7941,-19.9488 L 11.5,-19.944 z M 18.8726,-19.9488 L 18.5814,-19.9632 L 18.2958,-19.987 L 18.0186,-20.0201 L 17.7525,-20.062 L 17.5,-20.1125  L 17.2635,-20.1709 L 17.0453,-20.2368 L 16.8476,-20.3096 L 16.6723,-20.3884 L 16.5209,-20.4726 L 16.395,-20.5613  L 16.2958,-20.6537 L 16.2243,-20.7489 L 16.1811,-20.8459 L 16.1667,-20.944 L 16.1811,-21.042 L 16.2243,-21.139  L 16.2958,-21.2342 L 16.395,-21.3266 L 16.5209,-21.4153 L 16.6723,-21.4995 L 16.8476,-21.5783 L 17.0453,-21.6511  L 17.2635,-21.717 L 17.5,-21.7754 L 17.7525,-21.8259 L 18.0186,-21.8678 L 18.2958,-21.9009 L 18.5814,-21.9247  L 18.8726,-21.9391 L 19.1667,-21.944 L 19.4607,-21.9391 L 19.7519,-21.9247 L 20.0375,-21.9009 L 20.3147,-21.8678  L 20.5809,-21.8259 L 20.8334,-21.7754 L 21.0698,-21.717 L 21.288,-21.6511 L 21.4857,-21.5783 L 21.6611,-21.4995  L 21.8124,-21.4153 L 21.9383,-21.3266 L 22.0375,-21.2342 L 22.109,-21.139 L 22.1522,-21.042 L 22.1667,-20.944  L 22.1522,-20.8459 L 22.109,-20.7489 L 22.0375,-20.6537 L 21.9383,-20.5613 L 21.8124,-20.4726 L 21.6611,-20.3884  L 21.4857,-20.3096 L 21.288,-20.2368 L 21.0698,-20.1709 L 20.8334,-20.1125 L 20.5809,-20.062 L 20.3147,-20.0201  L 20.0375,-19.987 L 19.7519,-19.9632 L 19.4607,-19.9488 L 19.1667,-19.944 z M 7.37262,-17.6217 L 7.0814,-17.6361 L 6.79581,-17.6599 L 6.51862,-17.693 L 6.25248,-17.7349 L 5.99996,-17.7854  L 5.76349,-17.8438 L 5.54535,-17.9097 L 5.34764,-17.9825 L 5.17226,-18.0613 L 5.0209,-18.1454 L 4.89503,-18.2342  L 4.79585,-18.3266 L 4.72431,-18.4218 L 4.68111,-18.5188 L 4.66667,-18.6168 L 4.68111,-18.7149 L 4.72431,-18.8119  L 4.79585,-18.9071 L 4.89503,-18.9995 L 5.0209,-19.0882 L 5.17226,-19.1724 L 5.34764,-19.2512 L 5.54535,-19.324  L 5.76349,-19.3899 L 5.99996,-19.4483 L 6.25248,-19.4988 L 6.51862,-19.5407 L 6.79581,-19.5738 L 7.0814,-19.5976  L 7.37262,-19.612 L 7.66667,-19.6168 L 7.96072,-19.612 L 8.25194,-19.5976 L 8.53752,-19.5738 L 8.81472,-19.5407  L 9.08086,-19.4988 L 9.33338,-19.4483 L 9.56985,-19.3899 L 9.78799,-19.324 L 9.9857,-19.2512 L 10.1611,-19.1724  L 10.3124,-19.0882 L 10.4383,-18.9995 L 10.5375,-18.9071 L 10.609,-18.8119 L 10.6522,-18.7149 L 10.6667,-18.6168  L 10.6522,-18.5188 L 10.609,-18.4218 L 10.5375,-18.3266 L 10.4383,-18.2342 L 10.3124,-18.1454 L 10.1611,-18.0613  L 9.9857,-17.9825 L 9.78799,-17.9097 L 9.56985,-17.8438 L 9.33338,-17.7854 L 9.08086,-17.7349 L 8.81472,-17.693  L 8.53752,-17.6599 L 8.25194,-17.6361 L 7.96072,-17.6217 L 7.66667,-17.6168 z M 15.0393,-17.6217 L 14.7481,-17.6361 L 14.4625,-17.6599 L 14.1853,-17.693 L 13.9191,-17.7349 L 13.6666,-17.7854  L 13.4302,-17.8438 L 13.212,-17.9097 L 13.0143,-17.9825 L 12.8389,-18.0613 L 12.6876,-18.1454 L 12.5617,-18.2342  L 12.4625,-18.3266 L 12.391,-18.4218 L 12.3478,-18.5188 L 12.3333,-18.6168 L 12.3478,-18.7149 L 12.391,-18.8119  L 12.4625,-18.9071 L 12.5617,-18.9995 L 12.6876,-19.0882 L 12.8389,-19.1724 L 13.0143,-19.2512 L 13.212,-19.324  L 13.4302,-19.3899 L 13.6666,-19.4483 L 13.9191,-19.4988 L 14.1853,-19.5407 L 14.4625,-19.5738 L 14.7481,-19.5976  L 15.0393,-19.612 L 15.3333,-19.6168 L 15.6274,-19.612 L 15.9186,-19.5976 L 16.2042,-19.5738 L 16.4814,-19.5407  L 16.7475,-19.4988 L 17,-19.4483 L 17.2365,-19.3899 L 17.4547,-19.324 L 17.6524,-19.2512 L 17.8277,-19.1724  L 17.9791,-19.0882 L 18.105,-18.9995 L 18.2042,-18.9071 L 18.2757,-18.8119 L 18.3189,-18.7149 L 18.3333,-18.6168  L 18.3189,-18.5188 L 18.2757,-18.4218 L 18.2042,-18.3266 L 18.105,-18.2342 L 17.9791,-18.1454 L 17.8277,-18.0613  L 17.6524,-17.9825 L 17.4547,-17.9097 L 17.2365,-17.8438 L 17,-17.7854 L 16.7475,-17.7349 L 16.4814,-17.693  L 16.2042,-17.6599 L 15.9186,-17.6361 L 15.6274,-17.6217 L 15.3333,-17.6168 z M 3.53928,-15.2946 L 3.24806,-15.309 L 2.96248,-15.3328 L 2.68528,-15.3659 L 2.41914,-15.4078 L 2.16662,-15.4583  L 1.93015,-15.5167 L 1.71201,-15.5826 L 1.5143,-15.6553 L 1.33892,-15.7342 L 1.18757,-15.8183 L 1.06169,-15.9071  L 0.962512,-15.9995 L 0.890977,-16.0946 L 0.847779,-16.1917 L 0.833333,-16.2897 L 0.847779,-16.3878 L 0.890977,-16.4848  L 0.962512,-16.58 L 1.06169,-16.6724 L 1.18757,-16.7611 L 1.33892,-16.8453 L 1.5143,-16.9241 L 1.71201,-16.9968  L 1.93015,-17.0628 L 2.16662,-17.1212 L 2.41914,-17.1717 L 2.68528,-17.2136 L 2.96248,-17.2467 L 3.24806,-17.2705  L 3.53928,-17.2849 L 3.83333,-17.2897 L 4.12738,-17.2849 L 4.4186,-17.2705 L 4.70419,-17.2467 L 4.98138,-17.2136  L 5.24752,-17.1717 L 5.50004,-17.1212 L 5.73651,-17.0628 L 5.95465,-16.9968 L 6.15236,-16.9241 L 6.32774,-16.8453  L 6.4791,-16.7611 L 6.60497,-16.6724 L 6.70415,-16.58 L 6.77569,-16.4848 L 6.81889,-16.3878 L 6.83333,-16.2897  L 6.81889,-16.1917 L 6.77569,-16.0946 L 6.70415,-15.9995 L 6.60497,-15.9071 L 6.4791,-15.8183 L 6.32774,-15.7342  L 6.15236,-15.6553 L 5.95465,-15.5826 L 5.73651,-15.5167 L 5.50004,-15.4583 L 5.24752,-15.4078 L 4.98138,-15.3659  L 4.70419,-15.3328 L 4.4186,-15.309 L 4.12738,-15.2946 L 3.83333,-15.2897 z M 11.2059,-15.2946 L 10.9147,-15.309 L 10.6291,-15.3328 L 10.3519,-15.3659 L 10.0858,-15.4078 L 9.83329,-15.4583  L 9.59682,-15.5167 L 9.37868,-15.5826 L 9.18097,-15.6553 L 9.00559,-15.7342 L 8.85424,-15.8183 L 8.72836,-15.9071  L 8.62918,-15.9995 L 8.55764,-16.0946 L 8.51445,-16.1917 L 8.5,-16.2897 L 8.51445,-16.3878 L 8.55764,-16.4848  L 8.62918,-16.58 L 8.72836,-16.6724 L 8.85424,-16.7611 L 9.00559,-16.8453 L 9.18097,-16.9241 L 9.37868,-16.9968  L 9.59682,-17.0628 L 9.83329,-17.1212 L 10.0858,-17.1717 L 10.3519,-17.2136 L 10.6291,-17.2467 L 10.9147,-17.2705  L 11.2059,-17.2849 L 11.5,-17.2897 L 11.7941,-17.2849 L 12.0853,-17.2705 L 12.3709,-17.2467 L 12.6481,-17.2136  L 12.9142,-17.1717 L 13.1667,-17.1212 L 13.4032,-17.0628 L 13.6213,-16.9968 L 13.819,-16.9241 L 13.9944,-16.8453  L 14.1458,-16.7611 L 14.2716,-16.6724 L 14.3708,-16.58 L 14.4424,-16.4848 L 14.4856,-16.3878 L 14.5,-16.2897  L 14.4856,-16.1917 L 14.4424,-16.0946 L 14.3708,-15.9995 L 14.2716,-15.9071 L 14.1458,-15.8183 L 13.9944,-15.7342  L 13.819,-15.6553 L 13.6213,-15.5826 L 13.4032,-15.5167 L 13.1667,-15.4583 L 12.9142,-15.4078 L 12.6481,-15.3659  L 12.3709,-15.3328 L 12.0853,-15.309 L 11.7941,-15.2946 L 11.5,-15.2897 z M 18.8726,-15.2946 L 18.5814,-15.309 L 18.2958,-15.3328 L 18.0186,-15.3659 L 17.7525,-15.4078 L 17.5,-15.4583  L 17.2635,-15.5167 L 17.0453,-15.5826 L 16.8476,-15.6553 L 16.6723,-15.7342 L 16.5209,-15.8183 L 16.395,-15.9071  L 16.2958,-15.9995 L 16.2243,-16.0946 L 16.1811,-16.1917 L 16.1667,-16.2897 L 16.1811,-16.3878 L 16.2243,-16.4848  L 16.2958,-16.58 L 16.395,-16.6724 L 16.5209,-16.7611 L 16.6723,-16.8453 L 16.8476,-16.9241 L 17.0453,-16.9968  L 17.2635,-17.0628 L 17.5,-17.1212 L 17.7525,-17.1717 L 18.0186,-17.2136 L 18.2958,-17.2467 L 18.5814,-17.2705  L 18.8726,-17.2849 L 19.1667,-17.2897 L 19.4607,-17.2849 L 19.7519,-17.2705 L 20.0375,-17.2467 L 20.3147,-17.2136  L 20.5809,-17.1717 L 20.8334,-17.1212 L 21.0698,-17.0628 L 21.288,-16.9968 L 21.4857,-16.9241 L 21.6611,-16.8453  L 21.8124,-16.7611 L 21.9383,-16.6724 L 22.0375,-16.58 L 22.109,-16.4848 L 22.1522,-16.3878 L 22.1667,-16.2897  L 22.1522,-16.1917 L 22.109,-16.0946 L 22.0375,-15.9995 L 21.9383,-15.9071 L 21.8124,-15.8183 L 21.6611,-15.7342  L 21.4857,-15.6553 L 21.288,-15.5826 L 21.0698,-15.5167 L 20.8334,-15.4583 L 20.5809,-15.4078 L 20.3147,-15.3659  L 20.0375,-15.3328 L 19.7519,-15.309 L 19.4607,-15.2946 L 19.1667,-15.2897 z M 7.37262,-12.9674 L 7.0814,-12.9818 L 6.79581,-13.0057 L 6.51862,-13.0388 L 6.25248,-13.0807 L 5.99996,-13.1312  L 5.76349,-13.1896 L 5.54535,-13.2555 L 5.34764,-13.3282 L 5.17226,-13.4071 L 5.0209,-13.4912 L 4.89503,-13.58  L 4.79585,-13.6723 L 4.72431,-13.7675 L 4.68111,-13.8646 L 4.66667,-13.9626 L 4.68111,-14.0607 L 4.72431,-14.1577  L 4.79585,-14.2529 L 4.89503,-14.3453 L 5.0209,-14.434 L 5.17226,-14.5182 L 5.34764,-14.597 L 5.54535,-14.6697  L 5.76349,-14.7356 L 5.99996,-14.7941 L 6.25248,-14.8446 L 6.51862,-14.8865 L 6.79581,-14.9196 L 7.0814,-14.9434  L 7.37262,-14.9578 L 7.66667,-14.9626 L 7.96072,-14.9578 L 8.25194,-14.9434 L 8.53752,-14.9196 L 8.81472,-14.8865  L 9.08086,-14.8446 L 9.33338,-14.7941 L 9.56985,-14.7356 L 9.78799,-14.6697 L 9.9857,-14.597 L 10.1611,-14.5182  L 10.3124,-14.434 L 10.4383,-14.3453 L 10.5375,-14.2529 L 10.609,-14.1577 L 10.6522,-14.0607 L 10.6667,-13.9626  L 10.6522,-13.8646 L 10.609,-13.7675 L 10.5375,-13.6723 L 10.4383,-13.58 L 10.3124,-13.4912 L 10.1611,-13.4071  L 9.9857,-13.3282 L 9.78799,-13.2555 L 9.56985,-13.1896 L 9.33338,-13.1312 L 9.08086,-13.0807 L 8.81472,-13.0388  L 8.53752,-13.0057 L 8.25194,-12.9818 L 7.96072,-12.9674 L 7.66667,-12.9626 z M 15.0393,-12.9674 L 14.7481,-12.9818 L 14.4625,-13.0057 L 14.1853,-13.0388 L 13.9191,-13.0807 L 13.6666,-13.1312  L 13.4302,-13.1896 L 13.212,-13.2555 L 13.0143,-13.3282 L 12.8389,-13.4071 L 12.6876,-13.4912 L 12.5617,-13.58  L 12.4625,-13.6723 L 12.391,-13.7675 L 12.3478,-13.8646 L 12.3333,-13.9626 L 12.3478,-14.0607 L 12.391,-14.1577  L 12.4625,-14.2529 L 12.5617,-14.3453 L 12.6876,-14.434 L 12.8389,-14.5182 L 13.0143,-14.597 L 13.212,-14.6697  L 13.4302,-14.7356 L 13.6666,-14.7941 L 13.9191,-14.8446 L 14.1853,-14.8865 L 14.4625,-14.9196 L 14.7481,-14.9434  L 15.0393,-14.9578 L 15.3333,-14.9626 L 15.6274,-14.9578 L 15.9186,-14.9434 L 16.2042,-14.9196 L 16.4814,-14.8865  L 16.7475,-14.8446 L 17,-14.7941 L 17.2365,-14.7356 L 17.4547,-14.6697 L 17.6524,-14.597 L 17.8277,-14.5182  L 17.9791,-14.434 L 18.105,-14.3453 L 18.2042,-14.2529 L 18.2757,-14.1577 L 18.3189,-14.0607 L 18.3333,-13.9626  L 18.3189,-13.8646 L 18.2757,-13.7675 L 18.2042,-13.6723 L 18.105,-13.58 L 17.9791,-13.4912 L 17.8277,-13.4071  L 17.6524,-13.3282 L 17.4547,-13.2555 L 17.2365,-13.1896 L 17,-13.1312 L 16.7475,-13.0807 L 16.4814,-13.0388  L 16.2042,-13.0057 L 15.9186,-12.9818 L 15.6274,-12.9674 L 15.3333,-12.9626 z M 3.53928,-10.6403 L 3.24806,-10.6547 L 2.96248,-10.6786 L 2.68528,-10.7116 L 2.41914,-10.7536 L 2.16662,-10.8041  L 1.93015,-10.8625 L 1.71201,-10.9284 L 1.5143,-11.0011 L 1.33892,-11.08 L 1.18757,-11.1641 L 1.06169,-11.2528  L 0.962512,-11.3452 L 0.890977,-11.4404 L 0.847779,-11.5375 L 0.833333,-11.6355 L 0.847779,-11.7335 L 0.890977,-11.8306  L 0.962512,-11.9258 L 1.06169,-12.0182 L 1.18757,-12.1069 L 1.33892,-12.1911 L 1.5143,-12.2699 L 1.71201,-12.3426  L 1.93015,-12.4085 L 2.16662,-12.467 L 2.41914,-12.5174 L 2.68528,-12.5594 L 2.96248,-12.5925 L 3.24806,-12.6163  L 3.53928,-12.6307 L 3.83333,-12.6355 L 4.12738,-12.6307 L 4.4186,-12.6163 L 4.70419,-12.5925 L 4.98138,-12.5594  L 5.24752,-12.5174 L 5.50004,-12.467 L 5.73651,-12.4085 L 5.95465,-12.3426 L 6.15236,-12.2699 L 6.32774,-12.1911  L 6.4791,-12.1069 L 6.60497,-12.0182 L 6.70415,-11.9258 L 6.77569,-11.8306 L 6.81889,-11.7335 L 6.83333,-11.6355  L 6.81889,-11.5375 L 6.77569,-11.4404 L 6.70415,-11.3452 L 6.60497,-11.2528 L 6.4791,-11.1641 L 6.32774,-11.08  L 6.15236,-11.0011 L 5.95465,-10.9284 L 5.73651,-10.8625 L 5.50004,-10.8041 L 5.24752,-10.7536 L 4.98138,-10.7116  L 4.70419,-10.6786 L 4.4186,-10.6547 L 4.12738,-10.6403 L 3.83333,-10.6355 z M 11.2059,-10.6403 L 10.9147,-10.6547 L 10.6291,-10.6786 L 10.3519,-10.7116 L 10.0858,-10.7536 L 9.83329,-10.8041  L 9.59682,-10.8625 L 9.37868,-10.9284 L 9.18097,-11.0011 L 9.00559,-11.08 L 8.85424,-11.1641 L 8.72836,-11.2528  L 8.62918,-11.3452 L 8.55764,-11.4404 L 8.51445,-11.5375 L 8.5,-11.6355 L 8.51445,-11.7335 L 8.55764,-11.8306  L 8.62918,-11.9258 L 8.72836,-12.0182 L 8.85424,-12.1069 L 9.00559,-12.1911 L 9.18097,-12.2699 L 9.37868,-12.3426  L 9.59682,-12.4085 L 9.83329,-12.467 L 10.0858,-12.5174 L 10.3519,-12.5594 L 10.6291,-12.5925 L 10.9147,-12.6163  L 11.2059,-12.6307 L 11.5,-12.6355 L 11.7941,-12.6307 L 12.0853,-12.6163 L 12.3709,-12.5925 L 12.6481,-12.5594  L 12.9142,-12.5174 L 13.1667,-12.467 L 13.4032,-12.4085 L 13.6213,-12.3426 L 13.819,-12.2699 L 13.9944,-12.1911  L 14.1458,-12.1069 L 14.2716,-12.0182 L 14.3708,-11.9258 L 14.4424,-11.8306 L 14.4856,-11.7335 L 14.5,-11.6355  L 14.4856,-11.5375 L 14.4424,-11.4404 L 14.3708,-11.3452 L 14.2716,-11.2528 L 14.1458,-11.1641 L 13.9944,-11.08  L 13.819,-11.0011 L 13.6213,-10.9284 L 13.4032,-10.8625 L 13.1667,-10.8041 L 12.9142,-10.7536 L 12.6481,-10.7116  L 12.3709,-10.6786 L 12.0853,-10.6547 L 11.7941,-10.6403 L 11.5,-10.6355 z M 18.8726,-10.6403 L 18.5814,-10.6547 L 18.2958,-10.6786 L 18.0186,-10.7116 L 17.7525,-10.7536 L 17.5,-10.8041  L 17.2635,-10.8625 L 17.0453,-10.9284 L 16.8476,-11.0011 L 16.6723,-11.08 L 16.5209,-11.1641 L 16.395,-11.2528  L 16.2958,-11.3452 L 16.2243,-11.4404 L 16.1811,-11.5375 L 16.1667,-11.6355 L 16.1811,-11.7335 L 16.2243,-11.8306  L 16.2958,-11.9258 L 16.395,-12.0182 L 16.5209,-12.1069 L 16.6723,-12.1911 L 16.8476,-12.2699 L 17.0453,-12.3426  L 17.2635,-12.4085 L 17.5,-12.467 L 17.7525,-12.5174 L 18.0186,-12.5594 L 18.2958,-12.5925 L 18.5814,-12.6163  L 18.8726,-12.6307 L 19.1667,-12.6355 L 19.4607,-12.6307 L 19.7519,-12.6163 L 20.0375,-12.5925 L 20.3147,-12.5594  L 20.5809,-12.5174 L 20.8334,-12.467 L 21.0698,-12.4085 L 21.288,-12.3426 L 21.4857,-12.2699 L 21.6611,-12.1911  L 21.8124,-12.1069 L 21.9383,-12.0182 L 22.0375,-11.9258 L 22.109,-11.8306 L 22.1522,-11.7335 L 22.1667,-11.6355  L 22.1522,-11.5375 L 22.109,-11.4404 L 22.0375,-11.3452 L 21.9383,-11.2528 L 21.8124,-11.1641 L 21.6611,-11.08  L 21.4857,-11.0011 L 21.288,-10.9284 L 21.0698,-10.8625 L 20.8334,-10.8041 L 20.5809,-10.7536 L 20.3147,-10.7116  L 20.0375,-10.6786 L 19.7519,-10.6547 L 19.4607,-10.6403 L 19.1667,-10.6355 z M 7.37262,-8.31324 L 7.0814,-8.32764 L 6.79581,-8.35148 L 6.51862,-8.38454 L 6.25248,-8.4265 L 5.99996,-8.47695  L 5.76349,-8.53541 L 5.54535,-8.60132 L 5.34764,-8.67403 L 5.17226,-8.75285 L 5.0209,-8.83703 L 4.89503,-8.92574  L 4.79585,-9.01814 L 4.72431,-9.11333 L 4.68111,-9.21041 L 4.66667,-9.30842 L 4.68111,-9.40644 L 4.72431,-9.50351  L 4.79585,-9.59871 L 4.89503,-9.69111 L 5.0209,-9.77982 L 5.17226,-9.86399 L 5.34764,-9.94282 L 5.54535,-10.0155  L 5.76349,-10.0814 L 5.99996,-10.1399 L 6.25248,-10.1903 L 6.51862,-10.2323 L 6.79581,-10.2654 L 7.0814,-10.2892  L 7.37262,-10.3036 L 7.66667,-10.3084 L 7.96072,-10.3036 L 8.25194,-10.2892 L 8.53752,-10.2654 L 8.81472,-10.2323  L 9.08086,-10.1903 L 9.33338,-10.1399 L 9.56985,-10.0814 L 9.78799,-10.0155 L 9.9857,-9.94282 L 10.1611,-9.86399  L 10.3124,-9.77982 L 10.4383,-9.69111 L 10.5375,-9.59871 L 10.609,-9.50351 L 10.6522,-9.40644 L 10.6667,-9.30842  L 10.6522,-9.21041 L 10.609,-9.11333 L 10.5375,-9.01814 L 10.4383,-8.92574 L 10.3124,-8.83703 L 10.1611,-8.75285  L 9.9857,-8.67403 L 9.78799,-8.60132 L 9.56985,-8.53541 L 9.33338,-8.47695 L 9.08086,-8.4265 L 8.81472,-8.38454  L 8.53752,-8.35148 L 8.25194,-8.32764 L 7.96072,-8.31324 L 7.66667,-8.30842 z M 15.0393,-8.31324 L 14.7481,-8.32764 L 14.4625,-8.35148 L 14.1853,-8.38454 L 13.9191,-8.4265 L 13.6666,-8.47695  L 13.4302,-8.53541 L 13.212,-8.60132 L 13.0143,-8.67403 L 12.8389,-8.75285 L 12.6876,-8.83703 L 12.5617,-8.92574  L 12.4625,-9.01814 L 12.391,-9.11333 L 12.3478,-9.21041 L 12.3333,-9.30842 L 12.3478,-9.40644 L 12.391,-9.50351  L 12.4625,-9.59871 L 12.5617,-9.69111 L 12.6876,-9.77982 L 12.8389,-9.86399 L 13.0143,-9.94282 L 13.212,-10.0155  L 13.4302,-10.0814 L 13.6666,-10.1399 L 13.9191,-10.1903 L 14.1853,-10.2323 L 14.4625,-10.2654 L 14.7481,-10.2892  L 15.0393,-10.3036 L 15.3333,-10.3084 L 15.6274,-10.3036 L 15.9186,-10.2892 L 16.2042,-10.2654 L 16.4814,-10.2323  L 16.7475,-10.1903 L 17,-10.1399 L 17.2365,-10.0814 L 17.4547,-10.0155 L 17.6524,-9.94282 L 17.8277,-9.86399  L 17.9791,-9.77982 L 18.105,-9.69111 L 18.2042,-9.59871 L 18.2757,-9.50351 L 18.3189,-9.40644 L 18.3333,-9.30842  L 18.3189,-9.21041 L 18.2757,-9.11333 L 18.2042,-9.01814 L 18.105,-8.92574 L 17.9791,-8.83703 L 17.8277,-8.75285  L 17.6524,-8.67403 L 17.4547,-8.60132 L 17.2365,-8.53541 L 17,-8.47695 L 16.7475,-8.4265 L 16.4814,-8.38454  L 16.2042,-8.35148 L 15.9186,-8.32764 L 15.6274,-8.31324 L 15.3333,-8.30842 z M 3.53928,-5.98613 L 3.24806,-6.00053 L 2.96248,-6.02438 L 2.68528,-6.05744 L 2.41914,-6.0994 L 2.16662,-6.14985  L 1.93015,-6.20831 L 1.71201,-6.27421 L 1.5143,-6.34692 L 1.33892,-6.42575 L 1.18757,-6.50992 L 1.06169,-6.59863  L 0.962512,-6.69103 L 0.890977,-6.78623 L 0.847779,-6.8833 L 0.833333,-6.98132 L 0.847779,-7.07933 L 0.890977,-7.17641  L 0.962512,-7.2716 L 1.06169,-7.364 L 1.18757,-7.45271 L 1.33892,-7.53689 L 1.5143,-7.61571 L 1.71201,-7.68842  L 1.93015,-7.75433 L 2.16662,-7.81279 L 2.41914,-7.86324 L 2.68528,-7.9052 L 2.96248,-7.93826 L 3.24806,-7.9621  L 3.53928,-7.9765 L 3.83333,-7.98132 L 4.12738,-7.9765 L 4.4186,-7.9621 L 4.70419,-7.93826 L 4.98138,-7.9052  L 5.24752,-7.86324 L 5.50004,-7.81279 L 5.73651,-7.75433 L 5.95465,-7.68842 L 6.15236,-7.61571 L 6.32774,-7.53689  L 6.4791,-7.45271 L 6.60497,-7.364 L 6.70415,-7.2716 L 6.77569,-7.17641 L 6.81889,-7.07933 L 6.83333,-6.98132  L 6.81889,-6.8833 L 6.77569,-6.78623 L 6.70415,-6.69103 L 6.60497,-6.59863 L 6.4791,-6.50992 L 6.32774,-6.42575  L 6.15236,-6.34692 L 5.95465,-6.27421 L 5.73651,-6.20831 L 5.50004,-6.14985 L 5.24752,-6.0994 L 4.98138,-6.05744  L 4.70419,-6.02438 L 4.4186,-6.00053 L 4.12738,-5.98613 L 3.83333,-5.98132 z M 11.2059,-5.98613 L 10.9147,-6.00053 L 10.6291,-6.02438 L 10.3519,-6.05744 L 10.0858,-6.0994 L 9.83329,-6.14985  L 9.59682,-6.20831 L 9.37868,-6.27421 L 9.18097,-6.34692 L 9.00559,-6.42575 L 8.85424,-6.50992 L 8.72836,-6.59863  L 8.62918,-6.69103 L 8.55764,-6.78623 L 8.51445,-6.8833 L 8.5,-6.98132 L 8.51445,-7.07933 L 8.55764,-7.17641  L 8.62918,-7.2716 L 8.72836,-7.364 L 8.85424,-7.45271 L 9.00559,-7.53689 L 9.18097,-7.61571 L 9.37868,-7.68842  L 9.59682,-7.75433 L 9.83329,-7.81279 L 10.0858,-7.86324 L 10.3519,-7.9052 L 10.6291,-7.93826 L 10.9147,-7.9621  L 11.2059,-7.9765 L 11.5,-7.98132 L 11.7941,-7.9765 L 12.0853,-7.9621 L 12.3709,-7.93826 L 12.6481,-7.9052  L 12.9142,-7.86324 L 13.1667,-7.81279 L 13.4032,-7.75433 L 13.6213,-7.68842 L 13.819,-7.61571 L 13.9944,-7.53689  L 14.1458,-7.45271 L 14.2716,-7.364 L 14.3708,-7.2716 L 14.4424,-7.17641 L 14.4856,-7.07933 L 14.5,-6.98132  L 14.4856,-6.8833 L 14.4424,-6.78623 L 14.3708,-6.69103 L 14.2716,-6.59863 L 14.1458,-6.50992 L 13.9944,-6.42575  L 13.819,-6.34692 L 13.6213,-6.27421 L 13.4032,-6.20831 L 13.1667,-6.14985 L 12.9142,-6.0994 L 12.6481,-6.05744  L 12.3709,-6.02438 L 12.0853,-6.00053 L 11.7941,-5.98613 L 11.5,-5.98132 z M 18.8726,-5.98613 L 18.5814,-6.00053 L 18.2958,-6.02438 L 18.0186,-6.05744 L 17.7525,-6.0994 L 17.5,-6.14985  L 17.2635,-6.20831 L 17.0453,-6.27421 L 16.8476,-6.34692 L 16.6723,-6.42575 L 16.5209,-6.50992 L 16.395,-6.59863  L 16.2958,-6.69103 L 16.2243,-6.78623 L 16.1811,-6.8833 L 16.1667,-6.98132 L 16.1811,-7.07933 L 16.2243,-7.17641  L 16.2958,-7.2716 L 16.395,-7.364 L 16.5209,-7.45271 L 16.6723,-7.53689 L 16.8476,-7.61571 L 17.0453,-7.68842  L 17.2635,-7.75433 L 17.5,-7.81279 L 17.7525,-7.86324 L 18.0186,-7.9052 L 18.2958,-7.93826 L 18.5814,-7.9621  L 18.8726,-7.9765 L 19.1667,-7.98132 L 19.4607,-7.9765 L 19.7519,-7.9621 L 20.0375,-7.93826 L 20.3147,-7.9052  L 20.5809,-7.86324 L 20.8334,-7.81279 L 21.0698,-7.75433 L 21.288,-7.68842 L 21.4857,-7.61571 L 21.6611,-7.53689  L 21.8124,-7.45271 L 21.9383,-7.364 L 22.0375,-7.2716 L 22.109,-7.17641 L 22.1522,-7.07933 L 22.1667,-6.98132  L 22.1522,-6.8833 L 22.109,-6.78623 L 22.0375,-6.69103 L 21.9383,-6.59863 L 21.8124,-6.50992 L 21.6611,-6.42575  L 21.4857,-6.34692 L 21.288,-6.27421 L 21.0698,-6.20831 L 20.8334,-6.14985 L 20.5809,-6.0994 L 20.3147,-6.05744  L 20.0375,-6.02438 L 19.7519,-6.00053 L 19.4607,-5.98613 L 19.1667,-5.98132 z M 7.37262,-3.65903 L 7.0814,-3.67343 L 6.79581,-3.69727 L 6.51862,-3.73033 L 6.25248,-3.77229 L 5.99996,-3.82274  L 5.76349,-3.8812 L 5.54535,-3.9471 L 5.34764,-4.01982 L 5.17226,-4.09864 L 5.0209,-4.18281 L 4.89503,-4.27153  L 4.79585,-4.36393 L 4.72431,-4.45912 L 4.68111,-4.55619 L 4.66667,-4.65421 L 4.68111,-4.75223 L 4.72431,-4.8493  L 4.79585,-4.9445 L 4.89503,-5.03689 L 5.0209,-5.12561 L 5.17226,-5.20978 L 5.34764,-5.2886 L 5.54535,-5.36132  L 5.76349,-5.42722 L 5.99996,-5.48568 L 6.25248,-5.53613 L 6.51862,-5.57809 L 6.79581,-5.61115 L 7.0814,-5.635  L 7.37262,-5.6494 L 7.66667,-5.65421 L 7.96072,-5.6494 L 8.25194,-5.635 L 8.53752,-5.61115 L 8.81472,-5.57809  L 9.08086,-5.53613 L 9.33338,-5.48568 L 9.56985,-5.42722 L 9.78799,-5.36132 L 9.9857,-5.2886 L 10.1611,-5.20978  L 10.3124,-5.12561 L 10.4383,-5.03689 L 10.5375,-4.9445 L 10.609,-4.8493 L 10.6522,-4.75223 L 10.6667,-4.65421  L 10.6522,-4.55619 L 10.609,-4.45912 L 10.5375,-4.36393 L 10.4383,-4.27153 L 10.3124,-4.18281 L 10.1611,-4.09864  L 9.9857,-4.01982 L 9.78799,-3.9471 L 9.56985,-3.8812 L 9.33338,-3.82274 L 9.08086,-3.77229 L 8.81472,-3.73033  L 8.53752,-3.69727 L 8.25194,-3.67343 L 7.96072,-3.65903 L 7.66667,-3.65421 z M 15.0393,-3.65903 L 14.7481,-3.67343 L 14.4625,-3.69727 L 14.1853,-3.73033 L 13.9191,-3.77229 L 13.6666,-3.82274  L 13.4302,-3.8812 L 13.212,-3.9471 L 13.0143,-4.01982 L 12.8389,-4.09864 L 12.6876,-4.18281 L 12.5617,-4.27153  L 12.4625,-4.36393 L 12.391,-4.45912 L 12.3478,-4.55619 L 12.3333,-4.65421 L 12.3478,-4.75223 L 12.391,-4.8493  L 12.4625,-4.9445 L 12.5617,-5.03689 L 12.6876,-5.12561 L 12.8389,-5.20978 L 13.0143,-5.2886 L 13.212,-5.36132  L 13.4302,-5.42722 L 13.6666,-5.48568 L 13.9191,-5.53613 L 14.1853,-5.57809 L 14.4625,-5.61115 L 14.7481,-5.635  L 15.0393,-5.6494 L 15.3333,-5.65421 L 15.6274,-5.6494 L 15.9186,-5.635 L 16.2042,-5.61115 L 16.4814,-5.57809  L 16.7475,-5.53613 L 17,-5.48568 L 17.2365,-5.42722 L 17.4547,-5.36132 L 17.6524,-5.2886 L 17.8277,-5.20978  L 17.9791,-5.12561 L 18.105,-5.03689 L 18.2042,-4.9445 L 18.2757,-4.8493 L 18.3189,-4.75223 L 18.3333,-4.65421  L 18.3189,-4.55619 L 18.2757,-4.45912 L 18.2042,-4.36393 L 18.105,-4.27153 L 17.9791,-4.18281 L 17.8277,-4.09864  L 17.6524,-4.01982 L 17.4547,-3.9471 L 17.2365,-3.8812 L 17,-3.82274 L 16.7475,-3.77229 L 16.4814,-3.73033  L 16.2042,-3.69727 L 15.9186,-3.67343 L 15.6274,-3.65903 L 15.3333,-3.65421 z M 3.53928,-1.33192 L 3.24806,-1.34632 L 2.96248,-1.37017 L 2.68528,-1.40323 L 2.41914,-1.44518 L 2.16662,-1.49564  L 1.93015,-1.5541 L 1.71201,-1.62 L 1.5143,-1.69271 L 1.33892,-1.77154 L 1.18757,-1.85571 L 1.06169,-1.94442  L 0.962512,-2.03682 L 0.890977,-2.13202 L 0.847779,-2.22909 L 0.833333,-2.32711 L 0.847779,-2.42512 L 0.890977,-2.5222  L 0.962512,-2.61739 L 1.06169,-2.70979 L 1.18757,-2.7985 L 1.33892,-2.88268 L 1.5143,-2.9615 L 1.71201,-3.03421  L 1.93015,-3.10012 L 2.16662,-3.15858 L 2.41914,-3.20903 L 2.68528,-3.25099 L 2.96248,-3.28405 L 3.24806,-3.30789  L 3.53928,-3.32229 L 3.83333,-3.32711 L 4.12738,-3.32229 L 4.4186,-3.30789 L 4.70419,-3.28405 L 4.98138,-3.25099  L 5.24752,-3.20903 L 5.50004,-3.15858 L 5.73651,-3.10012 L 5.95465,-3.03421 L 6.15236,-2.9615 L 6.32774,-2.88268  L 6.4791,-2.7985 L 6.60497,-2.70979 L 6.70415,-2.61739 L 6.77569,-2.5222 L 6.81889,-2.42512 L 6.83333,-2.32711  L 6.81889,-2.22909 L 6.77569,-2.13202 L 6.70415,-2.03682 L 6.60497,-1.94442 L 6.4791,-1.85571 L 6.32774,-1.77154  L 6.15236,-1.69271 L 5.95465,-1.62 L 5.73651,-1.5541 L 5.50004,-1.49564 L 5.24752,-1.44518 L 4.98138,-1.40323  L 4.70419,-1.37017 L 4.4186,-1.34632 L 4.12738,-1.33192 L 3.83333,-1.32711 z M 11.2059,-1.33192 L 10.9147,-1.34632 L 10.6291,-1.37017 L 10.3519,-1.40323 L 10.0858,-1.44518 L 9.83329,-1.49564  L 9.59682,-1.5541 L 9.37868,-1.62 L 9.18097,-1.69271 L 9.00559,-1.77154 L 8.85424,-1.85571 L 8.72836,-1.94442  L 8.62918,-2.03682 L 8.55764,-2.13202 L 8.51445,-2.22909 L 8.5,-2.32711 L 8.51445,-2.42512 L 8.55764,-2.5222  L 8.62918,-2.61739 L 8.72836,-2.70979 L 8.85424,-2.7985 L 9.00559,-2.88268 L 9.18097,-2.9615 L 9.37868,-3.03421  L 9.59682,-3.10012 L 9.83329,-3.15858 L 10.0858,-3.20903 L 10.3519,-3.25099 L 10.6291,-3.28405 L 10.9147,-3.30789  L 11.2059,-3.32229 L 11.5,-3.32711 L 11.7941,-3.32229 L 12.0853,-3.30789 L 12.3709,-3.28405 L 12.6481,-3.25099  L 12.9142,-3.20903 L 13.1667,-3.15858 L 13.4032,-3.10012 L 13.6213,-3.03421 L 13.819,-2.9615 L 13.9944,-2.88268  L 14.1458,-2.7985 L 14.2716,-2.70979 L 14.3708,-2.61739 L 14.4424,-2.5222 L 14.4856,-2.42512 L 14.5,-2.32711  L 14.4856,-2.22909 L 14.4424,-2.13202 L 14.3708,-2.03682 L 14.2716,-1.94442 L 14.1458,-1.85571 L 13.9944,-1.77154  L 13.819,-1.69271 L 13.6213,-1.62 L 13.4032,-1.5541 L 13.1667,-1.49564 L 12.9142,-1.44518 L 12.6481,-1.40323  L 12.3709,-1.37017 L 12.0853,-1.34632 L 11.7941,-1.33192 L 11.5,-1.32711 z M 18.8726,-1.33192 L 18.5814,-1.34632 L 18.2958,-1.37017 L 18.0186,-1.40323 L 17.7525,-1.44518 L 17.5,-1.49564  L 17.2635,-1.5541 L 17.0453,-1.62 L 16.8476,-1.69271 L 16.6723,-1.77154 L 16.5209,-1.85571 L 16.395,-1.94442  L 16.2958,-2.03682 L 16.2243,-2.13202 L 16.1811,-2.22909 L 16.1667,-2.32711 L 16.1811,-2.42512 L 16.2243,-2.5222  L 16.2958,-2.61739 L 16.395,-2.70979 L 16.5209,-2.7985 L 16.6723,-2.88268 L 16.8476,-2.9615 L 17.0453,-3.03421  L 17.2635,-3.10012 L 17.5,-3.15858 L 17.7525,-3.20903 L 18.0186,-3.25099 L 18.2958,-3.28405 L 18.5814,-3.30789  L 18.8726,-3.32229 L 19.1667,-3.32711 L 19.4607,-3.32229 L 19.7519,-3.30789 L 20.0375,-3.28405 L 20.3147,-3.25099  L 20.5809,-3.20903 L 20.8334,-3.15858 L 21.0698,-3.10012 L 21.288,-3.03421 L 21.4857,-2.9615 L 21.6611,-2.88268  L 21.8124,-2.7985 L 21.9383,-2.70979 L 22.0375,-2.61739 L 22.109,-2.5222 L 22.1522,-2.42512 L 22.1667,-2.32711  L 22.1522,-2.22909 L 22.109,-2.13202 L 22.0375,-2.03682 L 21.9383,-1.94442 L 21.8124,-1.85571 L 21.6611,-1.77154  L 21.4857,-1.69271 L 21.288,-1.62 L 21.0698,-1.5541 L 20.8334,-1.49564 L 20.5809,-1.44518 L 20.3147,-1.40323  L 20.0375,-1.37017 L 19.7519,-1.34632 L 19.4607,-1.33192 L 19.1667,-1.32711 z "
     stroke="black"
     fill="lightgray"
     stroke-width="0.5"
     id="path1"
     style="fill:none" />
</svg>
